_Griffith_Gothic-Light_WebTT.ufo
<glyph name="quotedbl" format="1">
  <advance width="684.032"/>
  <unicode hex="0022"/>
  <outline>
    <contour>
      <point x="115" y="1475" type="line"/>
      <point x="264" y="1475" type="line"/>
      <point x="229" y="1034" type="line"/>
      <point x="150" y="1034" type="line"/>
    </contour>
    <contour>
      <point x="418" y="1475" type="line"/>
      <point x="569" y="1475" type="line"/>
      <point x="532" y="1034" type="line"/>
      <point x="455" y="1034" type="line"/>
    </contour>
  </outline>
</glyph>
<glyph name="numbersign" format="1">
  <advance width="1251.328"/>
  <unicode hex="0023"/>
  <outline>
    <contour>
      <point x="1194" y="1059" type="line"/>
      <point x="1194" y="948" type="line"/>
      <point x="946" y="948" type="line"/>
      <point x="874" y="526" type="line"/>
      <point x="1124" y="526" type="line"/>
      <point x="1124" y="416" type="line"/>
      <point x="856" y="416" type="line"/>
      <point x="786" y="0" type="line"/>
      <point x="688" y="0" type="line"/>
      <point x="758" y="416" type="line"/>
      <point x="385" y="416" type="line"/>
      <point x="315" y="0" type="line"/>
      <point x="217" y="0" type="line"/>
      <point x="287" y="416" type="line"/>
      <point x="57" y="416" type="line"/>
      <point x="57" y="526" type="line"/>
      <point x="305" y="526" type="line"/>
      <point x="377" y="948" type="line"/>
      <point x="127" y="948" type="line"/>
      <point x="127" y="1059" type="line"/>
      <point x="395" y="1059" type="line"/>
      <point x="465" y="1475" type="line"/>
      <point x="563" y="1475" type="line"/>
      <point x="494" y="1059" type="line"/>
      <point x="866" y="1059" type="line"/>
      <point x="936" y="1475" type="line"/>
      <point x="1034" y="1475" type="line"/>
      <point x="965" y="1059" type="line"/>
    </contour>
    <contour>
      <point x="776" y="526" type="line"/>
      <point x="848" y="948" type="line"/>
      <point x="475" y="948" type="line"/>
      <point x="403" y="526" type="line"/>
    </contour>
  </outline>
</glyph>
<glyph name="dollar" format="1">
  <advance width="1120.256"/>
  <unicode hex="0024"/>
  <outline>
    <contour>
      <point x="608" y="815" type="line"/>
      <point x="848.298507463" y="732.910447761"/>
      <point x="1042.0" y="540.970149254"/>
      <point x="1042" y="385" type="qcurve" smooth="yes"/>
      <point x="1042.0" y="207.388059701"/>
      <point x="789.611940299" y="8.44776119403"/>
      <point x="612" y="-2" type="qcurve"/>
      <point x="612" y="-195" type="line"/>
      <point x="516" y="-195" type="line"/>
      <point x="516" y="0" type="line"/>
      <point x="383.164179104" y="7.46268656716"/>
      <point x="156.567164179" y="109.208955224"/>
      <point x="70" y="201" type="qcurve"/>
      <point x="152" y="293" type="line"/>
      <point x="234.089552239" y="205.686567164"/>
      <point x="410.298507463" y="113.701492537"/>
      <point x="520" y="104" type="qcurve"/>
      <point x="520" y="719" type="line"/>
      <point x="315.52238806" y="786.164179104"/>
      <point x="117.0" y="969.76119403"/>
      <point x="117" y="1122" type="qcurve" smooth="yes"/>
      <point x="117.0" y="1273.49253731"/>
      <point x="339.134328358" y="1470.28358209"/>
      <point x="516" y="1477" type="qcurve"/>
      <point x="516" y="1561" type="line"/>
      <point x="612" y="1561" type="line"/>
      <point x="612" y="1475" type="line"/>
      <point x="726.925373134" y="1465.29850746"/>
      <point x="911.417910448" y="1378.8358209"/>
      <point x="995" y="1296" type="qcurve"/>
      <point x="913" y="1204" type="line"/>
      <point x="844.343283582" y="1274.14925373"/>
      <point x="699.791044776" y="1358.05970149"/>
      <point x="608" y="1370" type="qcurve"/>
    </contour>
    <contour>
      <point x="246" y="1130" type="qcurve" smooth="yes"/>
      <point x="246.0" y="1027.76119403"/>
      <point x="378.208955224" y="895.492537313"/>
      <point x="520" y="844" type="qcurve"/>
      <point x="520" y="1372" type="line"/>
      <point x="387.164179104" y="1367.52238806"/>
      <point x="246.0" y="1235.97014925"/>
    </contour>
    <contour>
      <point x="608" y="102" type="line"/>
      <point x="747.552238806" y="111.701492537"/>
      <point x="913.0" y="251.626865672"/>
      <point x="913" y="377" type="qcurve" smooth="yes"/>
      <point x="913.0" y="483.71641791"/>
      <point x="785.611940299" y="624.328358209"/>
      <point x="608" y="690" type="qcurve"/>
    </contour>
  </outline>
</glyph>
<glyph name="parenleft" format="1">
  <advance width="643.072"/>
  <unicode hex="0028"/>
  <outline>
    <contour>
      <point x="262" y="655" type="qcurve" smooth="yes"/>
      <point x="262.0" y="398.28358209"/>
      <point x="432.47761194" y="-18.8805970149"/>
      <point x="578" y="-195" type="qcurve"/>
      <point x="457" y="-195" type="line"/>
      <point x="325.656716418" y="-47.9850746269"/>
      <point x="117.0" y="372.164179104"/>
      <point x="117" y="655" type="qcurve" smooth="yes"/>
      <point x="117.0" y="937.835820896"/>
      <point x="325.656716418" y="1358.73134328"/>
      <point x="457" y="1505" type="qcurve"/>
      <point x="578" y="1505" type="line"/>
      <point x="432.47761194" y="1329.62686567"/>
      <point x="262.0" y="911.71641791"/>
    </contour>
  </outline>
</glyph>
<glyph name="parenright" format="1">
  <advance width="643.072"/>
  <unicode hex="0029"/>
  <outline>
    <contour>
      <point x="184" y="1505" type="line"/>
      <point x="316.835820896" y="1358.73134328"/>
      <point x="526.0" y="937.835820896"/>
      <point x="526" y="655" type="qcurve" smooth="yes"/>
      <point x="526.0" y="372.164179104"/>
      <point x="316.835820896" y="-47.9850746269"/>
      <point x="184" y="-195" type="qcurve"/>
      <point x="66" y="-195" type="line"/>
      <point x="210.776119403" y="-18.8805970149"/>
      <point x="379.0" y="398.28358209"/>
      <point x="379" y="655" type="qcurve" smooth="yes"/>
      <point x="379.0" y="911.71641791"/>
      <point x="210.776119403" y="1329.62686567"/>
      <point x="66" y="1505" type="qcurve"/>
    </contour>
  </outline>
</glyph>
<glyph name="plus" format="1">
  <advance width="1228.8"/>
  <unicode hex="002B"/>
  <outline>
    <contour>
      <point x="1135" y="786" type="line"/>
      <point x="1135" y="668" type="line"/>
      <point x="676" y="668" type="line"/>
      <point x="676" y="207" type="line"/>
      <point x="553" y="207" type="line"/>
      <point x="553" y="668" type="line"/>
      <point x="94" y="668" type="line"/>
      <point x="94" y="786" type="line"/>
      <point x="553" y="786" type="line"/>
      <point x="553" y="1247" type="line"/>
      <point x="676" y="1247" type="line"/>
      <point x="676" y="786" type="line"/>
    </contour>
  </outline>
</glyph>
<glyph name="hyphen" format="1">
  <advance width="632.832"/>
  <unicode hex="002D"/>
  <unicode hex="2010"/>
  <unicode hex="2011"/>
  <outline>
    <contour>
      <point x="555" y="637" type="line"/>
      <point x="555" y="512" type="line"/>
      <point x="78" y="512" type="line"/>
      <point x="78" y="637" type="line"/>
    </contour>
  </outline>
</glyph>
<glyph name="period" format="1">
  <advance width="380.928"/>
  <unicode hex="002E"/>
  <outline>
    <contour>
      <point x="190" y="188" type="qcurve" smooth="yes"/>
      <point x="233.28358209" y="188.0"/>
      <point x="291.0" y="130.537313433"/>
      <point x="291" y="88" type="qcurve" smooth="yes"/>
      <point x="291.0" y="43.9701492537"/>
      <point x="233.28358209" y="-14.0"/>
      <point x="190" y="-14" type="qcurve" smooth="yes"/>
      <point x="145.970149254" y="-14.0"/>
      <point x="88.0" y="43.9701492537"/>
      <point x="88" y="88" type="qcurve" smooth="yes"/>
      <point x="88.0" y="130.537313433"/>
      <point x="145.970149254" y="188.0"/>
    </contour>
  </outline>
</glyph>
<glyph name="slash" format="1">
  <advance width="776.192"/>
  <unicode hex="002F"/>
  <outline>
    <contour>
      <point x="606" y="1505" type="line"/>
      <point x="741" y="1505" type="line"/>
      <point x="109" y="-195" type="line"/>
      <point x="-27" y="-195" type="line"/>
    </contour>
  </outline>
</glyph>
<glyph name="one" format="1">
  <advance width="907.264"/>
  <unicode hex="0031"/>
  <outline>
    <contour>
      <point x="858" y="102" type="line"/>
      <point x="858" y="0" type="line"/>
      <point x="106" y="0" type="line"/>
      <point x="106" y="102" type="line"/>
      <point x="418" y="102" type="line"/>
      <point x="418" y="1372" type="line"/>
      <point x="82" y="1372" type="line"/>
      <point x="82" y="1475" type="line"/>
      <point x="557" y="1475" type="line"/>
      <point x="557" y="102" type="line"/>
    </contour>
  </outline>
</glyph>
<glyph name="two" format="1">
  <advance width="1134.592"/>
  <unicode hex="0032"/>
  <outline>
    <contour>
      <point x="1016" y="111" type="line"/>
      <point x="1016" y="0" type="line"/>
      <point x="121" y="0" type="line"/>
      <point x="121" y="94" type="line"/>
      <point x="177.71641791" y="270.119402985"/>
      <point x="391.970149254" y="530.985074627"/>
      <point x="586" y="678" type="qcurve" smooth="yes"/>
      <point x="718.835820896" y="778.746268657"/>
      <point x="856.0" y="959.402985075"/>
      <point x="856" y="1090" type="qcurve" smooth="yes"/>
      <point x="856.0" y="1216.86567164"/>
      <point x="712.552238806" y="1386.0"/>
      <point x="573" y="1386" type="qcurve" smooth="yes"/>
      <point x="451.358208955" y="1386.0"/>
      <point x="289.149253731" y="1249.28358209"/>
      <point x="219" y="1106" type="qcurve"/>
      <point x="111" y="1159" type="line"/>
      <point x="185.626865672" y="1317.95522388"/>
      <point x="412.835820896" y="1499.0"/>
      <point x="580" y="1499" type="qcurve" smooth="yes"/>
      <point x="790.447761194" y="1499.0"/>
      <point x="997.0" y="1260.41791045"/>
      <point x="997" y="1094" type="qcurve" smooth="yes"/>
      <point x="997.0" y="925.343283582"/>
      <point x="825.432835821" y="708.895522388"/>
      <point x="662" y="588" type="qcurve" smooth="yes"/>
      <point x="496.328358209" y="467.104477612"/>
      <point x="306.059701493" y="245.328358209"/>
      <point x="268" y="111" type="qcurve"/>
    </contour>
  </outline>
</glyph>
<glyph name="three" format="1">
  <advance width="1062.912"/>
  <unicode hex="0033"/>
  <outline>
    <contour>
      <point x="565" y="821" type="line"/>
      <point x="738.134328358" y="842.641791045"/>
      <point x="979.0" y="690.626865672"/>
      <point x="979" y="516" type="qcurve" smooth="yes"/>
      <point x="979.0" y="263.76119403"/>
      <point x="427.567164179" y="-14.9850746269"/>
      <point x="41" y="-12" type="qcurve"/>
      <point x="41" y="96" type="line"/>
      <point x="388.014925373" y="97.4925373134"/>
      <point x="836.0" y="316.985074627"/>
      <point x="836" y="514" type="qcurve" smooth="yes"/>
      <point x="836.0" y="630.417910448"/>
      <point x="693.671641791" y="745.0"/>
      <point x="578" y="745" type="qcurve" smooth="yes"/>
      <point x="511.582089552" y="745.0"/>
      <point x="418.014925373" y="727.925373134"/>
      <point x="371" y="713" type="qcurve"/>
      <point x="334" y="809" type="line"/>
      <point x="548.179104478" y="893.328358209"/>
      <point x="756.0" y="1054.11940299"/>
      <point x="756" y="1178" type="qcurve" smooth="yes"/>
      <point x="756.0" y="1272.7761194"/>
      <point x="637.462686567" y="1389.0"/>
      <point x="530" y="1389" type="qcurve" smooth="yes"/>
      <point x="437.462686567" y="1389.0"/>
      <point x="262.328358209" y="1288.29850746"/>
      <point x="178" y="1198" type="qcurve"/>
      <point x="98" y="1276" type="line"/>
      <point x="186.805970149" y="1370.7761194"/>
      <point x="405.447761194" y="1499.0"/>
      <point x="545" y="1499" type="qcurve" smooth="yes"/>
      <point x="712.910447761" y="1499.0"/>
      <point x="897.0" y="1329.34328358"/>
      <point x="897" y="1198" type="qcurve" smooth="yes"/>
      <point x="897.0" y="1068.14925373"/>
      <point x="716.970149254" y="893.179104478"/>
      <point x="561" y="829" type="qcurve"/>
    </contour>
  </outline>
</glyph>
<glyph name="five" format="1">
  <advance width="1105.92"/>
  <unicode hex="0035"/>
  <outline>
    <contour>
      <point x="1014" y="508" type="qcurve" smooth="yes"/>
      <point x="1014" y="498" type="line" smooth="yes"/>
      <point x="1014.0" y="242.776119403"/>
      <point x="683.149253731" y="-20.0"/>
      <point x="463" y="-20" type="qcurve" smooth="yes"/>
      <point x="345.089552239" y="-20.0"/>
      <point x="174.268656716" y="16.4626865672"/>
      <point x="78" y="59" type="qcurve"/>
      <point x="117" y="172" type="line"/>
      <point x="211.776119403" y="127.970149254"/>
      <point x="366.731343284" y="94.0"/>
      <point x="463" y="94" type="qcurve" smooth="yes"/>
      <point x="648.074626866" y="94.0"/>
      <point x="868.0" y="308.925373134"/>
      <point x="868" y="494" type="qcurve" smooth="yes"/>
      <point x="868" y="500" type="line" smooth="yes"/>
      <point x="868.0" y="658.955223881"/>
      <point x="714.044776119" y="827.0"/>
      <point x="573" y="827" type="qcurve" smooth="yes"/>
      <point x="486.432835821" y="827.0"/>
      <point x="356.701492537" y="759.47761194"/>
      <point x="297" y="705" type="qcurve"/>
      <point x="150" y="705" type="line"/>
      <point x="229" y="1475" type="line"/>
      <point x="934" y="1475" type="line"/>
      <point x="934" y="1358" type="line"/>
      <point x="334" y="1358" type="line"/>
      <point x="274" y="805" type="line"/>
      <point x="293" y="805" type="line"/>
      <point x="357.179104478" y="866.194029851"/>
      <point x="500.298507463" y="938.0"/>
      <point x="610" y="938" type="qcurve" smooth="yes"/>
      <point x="790.597014925" y="938.0"/>
      <point x="1014.0" y="713.970149254"/>
    </contour>
  </outline>
</glyph>
<glyph name="seven" format="1">
  <advance width="1013.76"/>
  <unicode hex="0037"/>
  <outline>
    <contour>
      <point x="979" y="1475" type="line"/>
      <point x="979" y="1382" type="line"/>
      <point x="783.47761194" y="1111.85074627"/>
      <point x="437.656716418" y="339.552238806"/>
      <point x="369" y="0" type="qcurve"/>
      <point x="221" y="0" type="line"/>
      <point x="283.686567164" y="299.253731343"/>
      <point x="625.507462687" y="1075.1641791"/>
      <point x="827" y="1358" type="qcurve"/>
      <point x="43" y="1358" type="line"/>
      <point x="43" y="1475" type="line"/>
    </contour>
  </outline>
</glyph>
<glyph name="eight" format="1">
  <advance width="1200.128"/>
  <unicode hex="0038"/>
  <outline>
    <contour>
      <point x="795" y="782" type="line"/>
      <point x="916.641791045" y="748.417910448"/>
      <point x="1100.0" y="556.462686567"/>
      <point x="1100" y="399" type="qcurve" smooth="yes"/>
      <point x="1100.0" y="197.507462687"/>
      <point x="795.52238806" y="-25.0"/>
      <point x="600" y="-25" type="qcurve" smooth="yes"/>
      <point x="402.985074627" y="-25.0"/>
      <point x="98.0" y="193.507462687"/>
      <point x="98" y="395" type="qcurve" smooth="yes"/>
      <point x="98.0" y="552.462686567"/>
      <point x="282.119402985" y="748.417910448"/>
      <point x="406" y="782" type="qcurve"/>
      <point x="406" y="797" type="line"/>
      <point x="298.537313433" y="830.582089552"/>
      <point x="139.0" y="995.641791045"/>
      <point x="139" y="1124" type="qcurve" smooth="yes"/>
      <point x="139.0" y="1291.1641791"/>
      <point x="407.462686567" y="1499.0"/>
      <point x="600" y="1499" type="qcurve" smooth="yes"/>
      <point x="792.537313433" y="1499.0"/>
      <point x="1059.0" y="1295.1641791"/>
      <point x="1059" y="1128" type="qcurve" smooth="yes"/>
      <point x="1059.0" y="999.641791045"/>
      <point x="900.223880597" y="832.074626866"/>
      <point x="795" y="797" type="qcurve"/>
    </contour>
    <contour>
      <point x="600" y="82" type="qcurve" smooth="yes"/>
      <point x="750.0" y="82.0"/>
      <point x="958.0" y="251.52238806"/>
      <point x="958" y="406" type="qcurve" smooth="yes"/>
      <point x="958.0" y="562.71641791"/>
      <point x="747.014925373" y="739.0"/>
      <point x="600" y="739" type="qcurve" smooth="yes"/>
      <point x="452.985074627" y="739.0"/>
      <point x="242.0" y="567.462686567"/>
      <point x="242" y="410" type="qcurve" smooth="yes"/>
      <point x="242.0" y="254.029850746"/>
      <point x="448.507462687" y="82.0"/>
    </contour>
    <contour>
      <point x="600" y="829" type="qcurve" smooth="yes"/>
      <point x="729.850746269" y="829.0"/>
      <point x="918.0" y="977.164179104"/>
      <point x="918" y="1110" type="qcurve" smooth="yes"/>
      <point x="918.0" y="1236.86567164"/>
      <point x="744.029850746" y="1393.0"/>
      <point x="600" y="1393" type="qcurve" smooth="yes"/>
      <point x="456.71641791" y="1393.0"/>
      <point x="281.0" y="1239.37313433"/>
      <point x="281" y="1114" type="qcurve" smooth="yes"/>
      <point x="281.0" y="982.656716418"/>
      <point x="468.656716418" y="829.0"/>
    </contour>
  </outline>
</glyph>
<glyph name="less" format="1">
  <advance width="1228.8"/>
  <unicode hex="003C"/>
  <outline>
    <contour>
      <point x="1112" y="338" type="line"/>
      <point x="1112" y="207" type="line"/>
      <point x="100" y="666" type="line"/>
      <point x="100" y="788" type="line"/>
      <point x="1112" y="1247" type="line"/>
      <point x="1112" y="1116" type="line"/>
      <point x="238" y="727" type="line"/>
    </contour>
  </outline>
</glyph>
<glyph name="greater" format="1">
  <advance width="1228.8"/>
  <unicode hex="003E"/>
  <outline>
    <contour>
      <point x="1128" y="788" type="line"/>
      <point x="1128" y="666" type="line"/>
      <point x="117" y="207" type="line"/>
      <point x="117" y="338" type="line"/>
      <point x="991" y="727" type="line"/>
      <point x="117" y="1116" type="line"/>
      <point x="117" y="1247" type="line"/>
    </contour>
  </outline>
</glyph>
<glyph name="question" format="1">
  <advance width="905.216"/>
  <unicode hex="003F"/>
  <outline>
    <contour>
      <point x="455" y="1499" type="qcurve" smooth="yes"/>
      <point x="619.925373134" y="1499.0"/>
      <point x="813.0" y="1309.05970149"/>
      <point x="813" y="1171" type="qcurve" smooth="yes"/>
      <point x="813.0" y="1053.8358209"/>
      <point x="714.447761194" y="904.223880597"/>
      <point x="604" y="799" type="qcurve" smooth="yes"/>
      <point x="520.417910448" y="717.656716418"/>
      <point x="458.492537313" y="574.0"/>
      <point x="457" y="424" type="qcurve"/>
      <point x="367" y="424" type="line"/>
      <point x="360.28358209" y="604.597014925"/>
      <point x="418.746268657" y="779.970149254"/>
      <point x="518" y="874" type="qcurve" smooth="yes"/>
      <point x="597.850746269" y="952.358208955"/>
      <point x="670.0" y="1085.89552239"/>
      <point x="670" y="1165" type="qcurve" smooth="yes"/>
      <point x="670.0" y="1261.26865672"/>
      <point x="552.731343284" y="1386.0"/>
      <point x="449" y="1386" type="qcurve" smooth="yes"/>
      <point x="337.059701493" y="1386.0"/>
      <point x="202.0" y="1275.92537313"/>
      <point x="152" y="1161" type="qcurve"/>
      <point x="43" y="1210" type="line"/>
      <point x="101.208955224" y="1346.56716418"/>
      <point x="296.044776119" y="1499.0"/>
    </contour>
    <contour>
      <point x="412" y="184" type="qcurve" smooth="yes"/>
      <point x="454.537313433" y="184.0"/>
      <point x="510.0" y="128.537313433"/>
      <point x="510" y="86" type="qcurve" smooth="yes"/>
      <point x="510.0" y="43.4626865672"/>
      <point x="454.537313433" y="-14.0"/>
      <point x="412" y="-14" type="qcurve" smooth="yes"/>
      <point x="368.71641791" y="-14.0"/>
      <point x="311.0" y="43.4626865672"/>
      <point x="311" y="86" type="qcurve" smooth="yes"/>
      <point x="311.0" y="128.537313433"/>
      <point x="368.71641791" y="184.0"/>
    </contour>
  </outline>
</glyph>
<glyph name="B" format="1">
  <advance width="1249.28"/>
  <unicode hex="0042"/>
  <outline>
    <contour>
      <point x="834" y="793" type="line"/>
      <point x="977.28358209" y="762.402985075"/>
      <point x="1159.0" y="580.895522388"/>
      <point x="1159" y="410" type="qcurve" smooth="yes"/>
      <point x="1159.0" y="210.746268657"/>
      <point x="873.940298507" y="0.0"/>
      <point x="662" y="0" type="qcurve" smooth="yes"/>
      <point x="172" y="0" type="line"/>
      <point x="172" y="1475" type="line"/>
      <point x="672" y="1475" type="line" smooth="yes"/>
      <point x="869.014925373" y="1475.0"/>
      <point x="1100.0" y="1285.94029851"/>
      <point x="1100" y="1124" type="qcurve" smooth="yes"/>
      <point x="1100.0" y="977.731343284"/>
      <point x="936.23880597" y="828.611940299"/>
      <point x="834" y="801" type="qcurve"/>
    </contour>
    <contour>
      <point x="649" y="111" type="line" smooth="yes"/>
      <point x="813.925373134" y="111.0"/>
      <point x="1016.0" y="261.014925373"/>
      <point x="1016" y="414" type="qcurve" smooth="yes"/>
      <point x="1016.0" y="566.23880597"/>
      <point x="838.044776119" y="737.0"/>
      <point x="647" y="737" type="qcurve" smooth="yes"/>
      <point x="311" y="737" type="line"/>
      <point x="311" y="111" type="line"/>
    </contour>
    <contour>
      <point x="641" y="842" type="line" smooth="yes"/>
      <point x="785.029850746" y="842.0"/>
      <point x="956.0" y="976.179104478"/>
      <point x="956" y="1112" type="qcurve" smooth="yes"/>
      <point x="956.0" y="1234.3880597"/>
      <point x="795.537313433" y="1364.0"/>
      <point x="653" y="1364" type="qcurve" smooth="yes"/>
      <point x="311" y="1364" type="line"/>
      <point x="311" y="842" type="line"/>
    </contour>
  </outline>
</glyph>
<glyph name="C" format="1">
  <advance width="1185.792"/>
  <unicode hex="0043"/>
  <outline>
    <contour>
      <point x="973" y="457" type="qcurve"/>
      <point x="1106" y="422" type="line"/>
      <point x="1061.97014925" y="224.985074627"/>
      <point x="831.0" y="-25.0"/>
      <point x="631" y="-25" type="qcurve" smooth="yes"/>
      <point x="387.71641791" y="-25.0"/>
      <point x="109.0" y="380.462686567"/>
      <point x="109" y="723" type="qcurve" smooth="yes"/>
      <point x="109" y="750" type="line" smooth="yes"/>
      <point x="109.0" y="1090.29850746"/>
      <point x="386.731343284" y="1499.0"/>
      <point x="633" y="1499" type="qcurve" smooth="yes"/>
      <point x="825.537313433" y="1499.0"/>
      <point x="1052.71641791" y="1272.04477612"/>
      <point x="1096" y="1081" type="qcurve"/>
      <point x="963" y="1042" type="line"/>
      <point x="922.701492537" y="1207.67164179"/>
      <point x="764.343283582" y="1384.0"/>
      <point x="633" y="1384" type="qcurve" smooth="yes"/>
      <point x="443.447761194" y="1384.0"/>
      <point x="256.0" y="1030.65671642"/>
      <point x="256" y="762" type="qcurve" smooth="yes"/>
      <point x="256" y="717" type="line" smooth="yes"/>
      <point x="256.0" y="446.104477612"/>
      <point x="443.955223881" y="90.0"/>
      <point x="635" y="90" type="qcurve" smooth="yes"/>
      <point x="773.805970149" y="90.0"/>
      <point x="936.432835821" y="289.835820896"/>
    </contour>
  </outline>
</glyph>
<glyph name="D" format="1">
  <advance width="1271.808"/>
  <unicode hex="0044"/>
  <outline>
    <contour>
      <point x="1165" y="750" type="qcurve" smooth="yes"/>
      <point x="1165" y="729" type="line" smooth="yes"/>
      <point x="1165.0" y="384.970149254"/>
      <point x="828.47761194" y="0.0"/>
      <point x="524" y="0" type="qcurve" smooth="yes"/>
      <point x="172" y="0" type="line"/>
      <point x="172" y="1475" type="line"/>
      <point x="532" y="1475" type="line" smooth="yes"/>
      <point x="837.970149254" y="1475.0"/>
      <point x="1165.0" y="1090.29850746"/>
    </contour>
    <contour>
      <point x="530" y="115" type="line" smooth="yes"/>
      <point x="758.358208955" y="115.0"/>
      <point x="1016.0" y="425.71641791"/>
      <point x="1016" y="719" type="qcurve" smooth="yes"/>
      <point x="1016" y="754" type="line" smooth="yes"/>
      <point x="1016.0" y="1048.7761194"/>
      <point x="762.298507463" y="1360.0"/>
      <point x="522" y="1360" type="qcurve" smooth="yes"/>
      <point x="317" y="1360" type="line"/>
      <point x="317" y="115" type="line"/>
    </contour>
  </outline>
</glyph>
<glyph name="F" format="1">
  <advance width="1075.2"/>
  <unicode hex="0046"/>
  <outline>
    <contour>
      <point x="1026" y="1475" type="line"/>
      <point x="1026" y="1358" type="line"/>
      <point x="319" y="1358" type="line"/>
      <point x="319" y="795" type="line"/>
      <point x="887" y="795" type="line"/>
      <point x="887" y="680" type="line"/>
      <point x="319" y="680" type="line"/>
      <point x="319" y="0" type="line"/>
      <point x="172" y="0" type="line"/>
      <point x="172" y="1475" type="line"/>
    </contour>
  </outline>
</glyph>
<glyph name="I" format="1">
  <advance width="792.576"/>
  <unicode hex="0049"/>
  <outline>
    <contour>
      <point x="680" y="78" type="line"/>
      <point x="680" y="0" type="line"/>
      <point x="113" y="0" type="line"/>
      <point x="113" y="78" type="line"/>
      <point x="324" y="78" type="line"/>
      <point x="324" y="1397" type="line"/>
      <point x="113" y="1397" type="line"/>
      <point x="113" y="1475" type="line"/>
      <point x="680" y="1475" type="line"/>
      <point x="680" y="1397" type="line"/>
      <point x="469" y="1397" type="line"/>
      <point x="469" y="78" type="line"/>
    </contour>
  </outline>
</glyph>
<glyph name="K" format="1">
  <advance width="1210.368"/>
  <unicode hex="004B"/>
  <outline>
    <contour>
      <point x="549" y="803" type="line"/>
      <point x="1214" y="0" type="line"/>
      <point x="1040" y="0" type="line"/>
      <point x="385" y="797" type="line"/>
      <point x="385" y="801" type="line"/>
      <point x="1010" y="1475" type="line"/>
      <point x="1180" y="1475" type="line"/>
    </contour>
    <contour>
      <point x="319" y="1475" type="line"/>
      <point x="319" y="0" type="line"/>
      <point x="172" y="0" type="line"/>
      <point x="172" y="1475" type="line"/>
    </contour>
  </outline>
</glyph>
<glyph name="Q" format="1">
  <advance width="1263.616"/>
  <unicode hex="0051"/>
  <outline>
    <contour>
      <point x="1237" y="-98" type="qcurve"/>
      <point x="1237" y="-203" type="line"/>
      <point x="1216.85074627" y="-208.970149254"/>
      <point x="1173.14925373" y="-213.0"/>
      <point x="1153" y="-213" type="qcurve" smooth="yes"/>
      <point x="1075.3880597" y="-213.0"/>
      <point x="976.0" y="-157.134328358"/>
      <point x="926" y="-84" type="qcurve" smooth="yes"/>
      <point x="848" y="29" type="line"/>
      <point x="800.23880597" y="2.88059701493"/>
      <point x="692.194029851" y="-25.0"/>
      <point x="631" y="-25" type="qcurve" smooth="yes"/>
      <point x="386.223880597" y="-25.0"/>
      <point x="109.0" y="380.462686567"/>
      <point x="109" y="723" type="qcurve" smooth="yes"/>
      <point x="109" y="750" type="line" smooth="yes"/>
      <point x="109.0" y="1090.29850746"/>
      <point x="386.223880597" y="1499.0"/>
      <point x="631" y="1499" type="qcurve" smooth="yes"/>
      <point x="877.268656716" y="1499.0"/>
      <point x="1155.0" y="1093.79104478"/>
      <point x="1155" y="752" type="qcurve" smooth="yes"/>
      <point x="1155" y="725" type="line" smooth="yes"/>
      <point x="1155.0" y="507.835820896"/>
      <point x="1037.73134328" y="177.28358209"/>
      <point x="934" y="84" type="qcurve"/>
      <point x="1012" y="-25" type="line" smooth="yes"/>
      <point x="1042.59701493" y="-67.5373134328"/>
      <point x="1109.98507463" y="-109.0"/>
      <point x="1157" y="-109" type="qcurve" smooth="yes"/>
      <point x="1175.65671642" y="-109.0"/>
      <point x="1216.85074627" y="-102.47761194"/>
    </contour>
    <contour>
      <point x="854" y="184" type="line"/>
      <point x="931.611940299" y="262.358208955"/>
      <point x="1006.0" y="535.358208955"/>
      <point x="1006" y="707" type="qcurve" smooth="yes"/>
      <point x="1006" y="758" type="line" smooth="yes"/>
      <point x="1006.0" y="1029.64179104"/>
      <point x="820.552238806" y="1384.0"/>
      <point x="631" y="1384" type="qcurve" smooth="yes"/>
      <point x="442.940298507" y="1384.0"/>
      <point x="256.0" y="1032.14925373"/>
      <point x="256" y="762" type="qcurve" smooth="yes"/>
      <point x="256" y="711" type="line" smooth="yes"/>
      <point x="256.0" y="437.119402985"/>
      <point x="442.940298507" y="82.0"/>
      <point x="631" y="82" type="qcurve" smooth="yes"/>
      <point x="676.52238806" y="82.0"/>
      <point x="756.671641791" y="102.850746269"/>
      <point x="791" y="123" type="qcurve"/>
      <point x="602" y="399" type="line"/>
      <point x="668" y="442" type="line"/>
    </contour>
  </outline>
</glyph>
<glyph name="S" format="1">
  <advance width="1157.12"/>
  <unicode hex="0053"/>
  <outline>
    <contour>
      <point x="623" y="827" type="qcurve" smooth="yes"/>
      <point x="870.014925373" y="746.402985075"/>
      <point x="1059.0" y="539.925373134"/>
      <point x="1059" y="375" type="qcurve" smooth="yes"/>
      <point x="1059.0" y="179.47761194"/>
      <point x="782.059701493" y="-25.0"/>
      <point x="594" y="-25" type="qcurve" smooth="yes"/>
      <point x="401.462686567" y="-25.0"/>
      <point x="147.701492537" y="144.582089552"/>
      <point x="88" y="311" type="qcurve"/>
      <point x="199" y="379" type="line"/>
      <point x="251.985074627" y="231.985074627"/>
      <point x="457.194029851" y="90.0"/>
      <point x="596" y="90" type="qcurve" smooth="yes"/>
      <point x="731.820895522" y="90.0"/>
      <point x="922.0" y="232.149253731"/>
      <point x="922" y="362" type="qcurve" smooth="yes"/>
      <point x="922.0" y="481.402985075"/>
      <point x="776.671641791" y="627.850746269"/>
      <point x="561" y="698" type="qcurve" smooth="yes"/>
      <point x="324.432835821" y="774.865671642"/>
      <point x="133.0" y="974.552238806"/>
      <point x="133" y="1135" type="qcurve" smooth="yes"/>
      <point x="133.0" y="1284.25373134"/>
      <point x="363.955223881" y="1499.0"/>
      <point x="555" y="1499" type="qcurve" smooth="yes"/>
      <point x="712.462686567" y="1499.0"/>
      <point x="946.805970149" y="1356.53731343"/>
      <point x="1008" y="1214" type="qcurve"/>
      <point x="899" y="1145" type="line"/>
      <point x="845.268656716" y="1256.19402985"/>
      <point x="681.358208955" y="1384.0"/>
      <point x="553" y="1384" type="qcurve" smooth="yes"/>
      <point x="415.686567164" y="1384.0"/>
      <point x="272.0" y="1238.79104478"/>
      <point x="272" y="1147" type="qcurve" smooth="yes"/>
      <point x="272.0" y="1033.56716418"/>
      <point x="420.76119403" y="894.910447761"/>
    </contour>
  </outline>
</glyph>
<glyph name="T" format="1">
  <advance width="1148.928"/>
  <unicode hex="0054"/>
  <outline>
    <contour>
      <point x="1110" y="1475" type="line"/>
      <point x="1110" y="1354" type="line"/>
      <point x="647" y="1354" type="line"/>
      <point x="647" y="0" type="line"/>
      <point x="502" y="0" type="line"/>
      <point x="502" y="1354" type="line"/>
      <point x="41" y="1354" type="line"/>
      <point x="41" y="1475" type="line"/>
    </contour>
  </outline>
</glyph>
<glyph name="V" format="1">
  <advance width="1261.568"/>
  <unicode hex="0056"/>
  <outline>
    <contour>
      <point x="1059" y="1475" type="line"/>
      <point x="1204" y="1475" type="line"/>
      <point x="717" y="-14" type="line"/>
      <point x="545" y="-14" type="line"/>
      <point x="57" y="1475" type="line"/>
      <point x="209" y="1475" type="line"/>
      <point x="629" y="135" type="line"/>
      <point x="639" y="135" type="line"/>
    </contour>
  </outline>
</glyph>
<glyph name="W" format="1">
  <advance width="1964.032"/>
  <unicode hex="0057"/>
  <outline>
    <contour>
      <point x="1737" y="1475" type="line"/>
      <point x="1882" y="1475" type="line"/>
      <point x="1489" y="-12" type="line"/>
      <point x="1321" y="-12" type="line"/>
      <point x="981" y="1303" type="line"/>
      <point x="963" y="1303" type="line"/>
      <point x="627" y="-12" type="line"/>
      <point x="459" y="-12" type="line"/>
      <point x="63" y="1475" type="line"/>
      <point x="215" y="1475" type="line"/>
      <point x="541" y="154" type="line"/>
      <point x="555" y="154" type="line"/>
      <point x="885" y="1475" type="line"/>
      <point x="1065" y="1475" type="line"/>
      <point x="1397" y="154" type="line"/>
      <point x="1413" y="154" type="line"/>
    </contour>
  </outline>
</glyph>
<glyph name="X" format="1">
  <advance width="1284.096"/>
  <unicode hex="0058"/>
  <outline>
    <contour>
      <point x="719" y="768" type="line"/>
      <point x="1225" y="0" type="line"/>
      <point x="1059" y="0" type="line"/>
      <point x="637" y="649" type="line"/>
      <point x="211" y="0" type="line"/>
      <point x="61" y="0" type="line"/>
      <point x="565" y="754" type="line"/>
      <point x="92" y="1475" type="line"/>
      <point x="256" y="1475" type="line"/>
      <point x="647" y="872" type="line"/>
      <point x="1042" y="1475" type="line"/>
      <point x="1192" y="1475" type="line"/>
    </contour>
  </outline>
</glyph>
<glyph name="Y" format="1">
  <advance width="1261.568"/>
  <unicode hex="0059"/>
  <outline>
    <contour>
      <point x="1077" y="1475" type="line"/>
      <point x="1227" y="1475" type="line"/>
      <point x="705" y="569" type="line"/>
      <point x="705" y="0" type="line"/>
      <point x="557" y="0" type="line"/>
      <point x="557" y="567" type="line"/>
      <point x="35" y="1475" type="line"/>
      <point x="195" y="1475" type="line"/>
      <point x="637" y="690" type="line"/>
    </contour>
  </outline>
</glyph>
<glyph name="Z" format="1">
  <advance width="1120.256"/>
  <unicode hex="005A"/>
  <outline>
    <contour>
      <point x="1044" y="117" type="line"/>
      <point x="1044" y="0" type="line"/>
      <point x="74" y="0" type="line"/>
      <point x="74" y="100" type="line"/>
      <point x="879" y="1358" type="line"/>
      <point x="113" y="1358" type="line"/>
      <point x="113" y="1475" type="line"/>
      <point x="1044" y="1475" type="line"/>
      <point x="1044" y="1374" type="line"/>
      <point x="240" y="117" type="line"/>
    </contour>
  </outline>
</glyph>
<glyph name="backslash" format="1">
  <advance width="776.192"/>
  <unicode hex="005C"/>
  <outline>
    <contour>
      <point x="172" y="1505" type="line"/>
      <point x="801" y="-195" type="line"/>
      <point x="664" y="-195" type="line"/>
      <point x="33" y="1505" type="line"/>
    </contour>
  </outline>
</glyph>
<glyph name="underscore" format="1">
  <advance width="1024.0"/>
  <unicode hex="005F"/>
  <outline>
    <contour>
      <point x="1030" y="-92" type="line"/>
      <point x="1030" y="-176" type="line"/>
      <point x="-6" y="-176" type="line"/>
      <point x="-6" y="-92" type="line"/>
    </contour>
  </outline>
</glyph>
<glyph name="grave" format="1">
  <advance width="1024.0"/>
  <unicode hex="0060"/>
  <outline>
    <contour>
      <point x="489" y="1522" type="line"/>
      <point x="676" y="1212" type="line"/>
      <point x="584" y="1212" type="line"/>
      <point x="303" y="1522" type="line"/>
    </contour>
  </outline>
</glyph>
<glyph name="a" format="1">
  <advance width="997.376"/>
  <unicode hex="0061"/>
  <outline>
    <contour>
      <point x="952" y="61" type="qcurve"/>
      <point x="952" y="-8" type="line"/>
      <point x="846.776119403" y="-8.0"/>
      <point x="719.447761194" y="95.4029850746"/>
      <point x="709" y="176" type="qcurve"/>
      <point x="696" y="176" type="line"/>
      <point x="618.388059701" y="78.2388059701"/>
      <point x="450.268656716" y="-16.0"/>
      <point x="354" y="-16" type="qcurve" smooth="yes"/>
      <point x="236.835820896" y="-16.0"/>
      <point x="66.0" y="128.179104478"/>
      <point x="66" y="264" type="qcurve" smooth="yes"/>
      <point x="66.0" y="425.940298507"/>
      <point x="390.582089552" y="625.0"/>
      <point x="707" y="625" type="qcurve"/>
      <point x="707" y="748" type="line" smooth="yes"/>
      <point x="707.0" y="862.179104478"/>
      <point x="611.28358209" y="969.0"/>
      <point x="518" y="969" type="qcurve" smooth="yes"/>
      <point x="435.910447761" y="969.0"/>
      <point x="283.059701493" y="914.746268657"/>
      <point x="195" y="864" type="qcurve"/>
      <point x="152" y="956" type="line"/>
      <point x="238.567164179" y="1003.76119403"/>
      <point x="423.089552239" y="1069.0"/>
      <point x="541" y="1069" type="qcurve" smooth="yes"/>
      <point x="693.23880597" y="1069.0"/>
      <point x="836.0" y="915.940298507"/>
      <point x="836" y="754" type="qcurve" smooth="yes"/>
      <point x="836" y="211" type="line" smooth="yes"/>
      <point x="836.0" y="143.835820896"/>
      <point x="892.298507463" y="67.7164179104"/>
    </contour>
    <contour>
      <point x="395" y="78" type="qcurve" smooth="yes"/>
      <point x="479.328358209" y="78.0"/>
      <point x="640.582089552" y="168.71641791"/>
      <point x="707" y="262" type="qcurve"/>
      <point x="707" y="553" type="line"/>
      <point x="433.119402985" y="555.985074627"/>
      <point x="195.0" y="387.940298507"/>
      <point x="195" y="276" type="qcurve" smooth="yes"/>
      <point x="195.0" y="183.462686567"/>
      <point x="309.925373134" y="78.0"/>
    </contour>
  </outline>
</glyph>
<glyph name="c" format="1">
  <advance width="909.312"/>
  <unicode hex="0063"/>
  <outline>
    <contour>
      <point x="737" y="285" type="qcurve"/>
      <point x="848" y="250" type="line"/>
      <point x="800.23880597" y="123.134328358"/>
      <point x="623.343283582" y="-20.0"/>
      <point x="492" y="-20" type="qcurve" smooth="yes"/>
      <point x="308.417910448" y="-20.0"/>
      <point x="86.0" y="278.955223881"/>
      <point x="86" y="520" type="qcurve" smooth="yes"/>
      <point x="86" y="535" type="line" smooth="yes"/>
      <point x="86.0" y="773.059701493"/>
      <point x="311.940298507" y="1079.0"/>
      <point x="500" y="1079" type="qcurve" smooth="yes"/>
      <point x="631.343283582" y="1079.0"/>
      <point x="795.731343284" y="941.388059701"/>
      <point x="842" y="819" type="qcurve"/>
      <point x="729" y="784" type="line"/>
      <point x="692.432835821" y="880.268656716"/>
      <point x="584.059701493" y="981.0"/>
      <point x="496" y="981" type="qcurve" smooth="yes"/>
      <point x="367.641791045" y="981.0"/>
      <point x="221.0" y="736.492537313"/>
      <point x="221" y="535" type="qcurve" smooth="yes"/>
      <point x="221" y="526" type="line" smooth="yes"/>
      <point x="221.0" y="324.507462687"/>
      <point x="368.149253731" y="78.0"/>
      <point x="498" y="78" type="qcurve" smooth="yes"/>
      <point x="583.074626866" y="78.0"/>
      <point x="694.462686567" y="182.014925373"/>
    </contour>
  </outline>
</glyph>
<glyph name="e" format="1">
  <advance width="940.032"/>
  <unicode hex="0065"/>
  <outline>
    <contour>
      <point x="858" y="528" type="qcurve" smooth="yes"/>
      <point x="858" y="504" type="line"/>
      <point x="217" y="504" type="line"/>
      <point x="219.985074627" y="295.791044776"/>
      <point x="384.179104478" y="80.0"/>
      <point x="520" y="80" type="qcurve" smooth="yes"/>
      <point x="599.850746269" y="80.0"/>
      <point x="732.313432836" y="145.298507463"/>
      <point x="795" y="205" type="qcurve"/>
      <point x="850" y="125" type="line"/>
      <point x="779.850746269" y="59.328358209"/>
      <point x="614.208955224" y="-20.0"/>
      <point x="506" y="-20" type="qcurve" smooth="yes"/>
      <point x="320.925373134" y="-20.0"/>
      <point x="86.0" y="263.791044776"/>
      <point x="86" y="522" type="qcurve" smooth="yes"/>
      <point x="86" y="535" type="line" smooth="yes"/>
      <point x="86.0" y="773.059701493"/>
      <point x="307.119402985" y="1079.0"/>
      <point x="481" y="1079" type="qcurve" smooth="yes"/>
      <point x="657.119402985" y="1079.0"/>
      <point x="858.0" y="777.253731343"/>
    </contour>
    <contour>
      <point x="219" y="584" type="qcurve"/>
      <point x="727" y="584" type="line"/>
      <point x="716.552238806" y="779.52238806"/>
      <point x="595.925373134" y="987.0"/>
      <point x="481" y="987" type="qcurve" smooth="yes"/>
      <point x="363.835820896" y="987.0"/>
      <point x="226.462686567" y="766.835820896"/>
    </contour>
  </outline>
</glyph>
<glyph name="j" format="1">
  <advance width="458.752"/>
  <unicode hex="006A"/>
  <outline>
    <contour>
      <point x="297" y="1059" type="line"/>
      <point x="297" y="-123" type="line" smooth="yes"/>
      <point x="297.0" y="-261.805970149"/>
      <point x="170.402985075" y="-389.0"/>
      <point x="51" y="-389" type="qcurve" smooth="yes"/>
      <point x="11.447761194" y="-389.0"/>
      <point x="-44.3880597015" y="-379.955223881"/>
      <point x="-72" y="-371" type="qcurve"/>
      <point x="-72" y="-270" type="line"/>
      <point x="-44.3880597015" y="-281.194029851"/>
      <point x="4.91044776119" y="-291.0"/>
      <point x="37" y="-291" type="qcurve" smooth="yes"/>
      <point x="95.2089552239" y="-291.0"/>
      <point x="162.0" y="-220.313432836"/>
      <point x="162" y="-133" type="qcurve" smooth="yes"/>
      <point x="162" y="1059" type="line"/>
    </contour>
    <contour>
      <point x="313" y="1479" type="line"/>
      <point x="313" y="1305" type="line"/>
      <point x="145" y="1305" type="line"/>
      <point x="145" y="1479" type="line"/>
    </contour>
  </outline>
</glyph>
<glyph name="k" format="1">
  <advance width="940.032"/>
  <unicode hex="006B"/>
  <outline>
    <contour>
      <point x="465" y="539" type="line"/>
      <point x="926" y="0" type="line"/>
      <point x="768" y="0" type="line"/>
      <point x="319" y="530" type="line"/>
      <point x="319" y="537" type="line"/>
      <point x="758" y="1059" type="line"/>
      <point x="909" y="1059" type="line"/>
    </contour>
    <contour>
      <point x="279" y="1559" type="line"/>
      <point x="279" y="0" type="line"/>
      <point x="143" y="0" type="line"/>
      <point x="143" y="1511" type="line"/>
    </contour>
  </outline>
</glyph>
<glyph name="m" format="1">
  <advance width="1589.248"/>
  <unicode hex="006D"/>
  <outline>
    <contour>
      <point x="1456" y="829" type="qcurve" smooth="yes"/>
      <point x="1456" y="0" type="line"/>
      <point x="1319" y="0" type="line"/>
      <point x="1319" y="801" type="line" smooth="yes"/>
      <point x="1319.0" y="883.089552239"/>
      <point x="1250.65671642" y="969.0"/>
      <point x="1182" y="969" type="qcurve" smooth="yes"/>
      <point x="1106.62686567" y="969.0"/>
      <point x="944.358208955" y="834.373134328"/>
      <point x="866" y="709" type="qcurve"/>
      <point x="866" y="0" type="line"/>
      <point x="731" y="0" type="line"/>
      <point x="731" y="801" type="line" smooth="yes"/>
      <point x="731.0" y="883.089552239"/>
      <point x="662.656716418" y="969.0"/>
      <point x="594" y="969" type="qcurve" smooth="yes"/>
      <point x="519.373134328" y="969.0"/>
      <point x="356.611940299" y="834.373134328"/>
      <point x="279" y="709" type="qcurve"/>
      <point x="279" y="0" type="line"/>
      <point x="143" y="0" type="line"/>
      <point x="143" y="1030" type="line"/>
      <point x="279" y="1077" type="line"/>
      <point x="279" y="805" type="line"/>
      <point x="291" y="805" type="line"/>
      <point x="373.089552239" y="924.402985075"/>
      <point x="546.791044776" y="1069.0"/>
      <point x="655" y="1069" type="qcurve" smooth="yes"/>
      <point x="760.970149254" y="1069.0"/>
      <point x="866.0" y="941.76119403"/>
      <point x="866" y="844" type="qcurve" smooth="yes"/>
      <point x="866" y="805" type="line"/>
      <point x="879" y="805" type="line"/>
      <point x="961.089552239" y="924.402985075"/>
      <point x="1134.79104478" y="1069.0"/>
      <point x="1243" y="1069" type="qcurve" smooth="yes"/>
      <point x="1351.95522388" y="1069.0"/>
      <point x="1456.0" y="934.970149254"/>
    </contour>
  </outline>
</glyph>
<glyph name="s" format="1">
  <advance width="833.536"/>
  <unicode hex="0073"/>
  <outline>
    <contour>
      <point x="449" y="604" type="qcurve" smooth="yes"/>
      <point x="625.865671642" y="541.313432836"/>
      <point x="766.0" y="390.417910448"/>
      <point x="766" y="274" type="qcurve" smooth="yes"/>
      <point x="766.0" y="130.71641791"/>
      <point x="560.805970149" y="-16.0"/>
      <point x="422" y="-16" type="qcurve" smooth="yes"/>
      <point x="305.582089552" y="-16.0"/>
      <point x="127.417910448" y="55.776119403"/>
      <point x="61" y="111" type="qcurve"/>
      <point x="123" y="197" type="line"/>
      <point x="187.179104478" y="141.776119403"/>
      <point x="336.686567164" y="78.0"/>
      <point x="424" y="78" type="qcurve" smooth="yes"/>
      <point x="515.791044776" y="78.0"/>
      <point x="643.0" y="171.194029851"/>
      <point x="643" y="260" type="qcurve" smooth="yes"/>
      <point x="643.0" y="341.343283582"/>
      <point x="539.029850746" y="439.76119403"/>
      <point x="395" y="492" type="qcurve" smooth="yes"/>
      <point x="234.552238806" y="547.970149254"/>
      <point x="92.0" y="694.044776119"/>
      <point x="92" y="803" type="qcurve" smooth="yes"/>
      <point x="92.0" y="917.179104478"/>
      <point x="265.686567164" y="1075.0"/>
      <point x="403" y="1075" type="qcurve" smooth="yes"/>
      <point x="504.492537313" y="1075.0"/>
      <point x="651.895522388" y="1021.47761194"/>
      <point x="731" y="967" type="qcurve"/>
      <point x="668" y="877" type="line"/>
      <point x="600.835820896" y="929.985074627"/>
      <point x="475.388059701" y="981.0"/>
      <point x="403" y="981" type="qcurve" smooth="yes"/>
      <point x="310.462686567" y="981.0"/>
      <point x="215.0" y="882.164179104"/>
      <point x="215" y="815" type="qcurve" smooth="yes"/>
      <point x="215.0" y="741.865671642"/>
      <point x="325.119402985" y="647.28358209"/>
    </contour>
  </outline>
</glyph>
<glyph name="u" format="1">
  <advance width="1009.664"/>
  <unicode hex="0075"/>
  <outline>
    <contour>
      <point x="866" y="1059" type="line"/>
      <point x="866" y="27" type="line"/>
      <point x="731" y="-18" type="line"/>
      <point x="731" y="254" type="line"/>
      <point x="719" y="254" type="line"/>
      <point x="636.164179104" y="134.597014925"/>
      <point x="457.462686567" y="-10.0"/>
      <point x="350" y="-10" type="qcurve" smooth="yes"/>
      <point x="241.791044776" y="-10.0"/>
      <point x="135.0" y="122.28358209"/>
      <point x="135" y="229" type="qcurve" smooth="yes"/>
      <point x="135" y="1059" type="line"/>
      <point x="270" y="1059" type="line"/>
      <point x="270" y="258" type="line" smooth="yes"/>
      <point x="270.0" y="175.164179104"/>
      <point x="342.597014925" y="90.0"/>
      <point x="412" y="90" type="qcurve" smooth="yes"/>
      <point x="486.626865672" y="90.0"/>
      <point x="653.388059701" y="223.134328358"/>
      <point x="731" y="350" type="qcurve"/>
      <point x="731" y="1059" type="line"/>
    </contour>
  </outline>
</glyph>
<glyph name="y" format="1">
  <advance width="946.176"/>
  <unicode hex="0079"/>
  <outline>
    <contour>
      <point x="760" y="1059" type="line"/>
      <point x="893" y="1059" type="line"/>
      <point x="506" y="-131" type="line" smooth="yes"/>
      <point x="458.23880597" y="-278.014925373"/>
      <point x="313.208955224" y="-395.0"/>
      <point x="205" y="-395" type="qcurve" smooth="yes"/>
      <point x="157.23880597" y="-395.0"/>
      <point x="80.5820895522" y="-375.671641791"/>
      <point x="47" y="-360" type="qcurve"/>
      <point x="47" y="-250" type="line"/>
      <point x="90" y="-250" type="line"/>
      <point x="108.656716418" y="-279.104477612"/>
      <point x="160.731343284" y="-311.0"/>
      <point x="207" y="-311" type="qcurve" smooth="yes"/>
      <point x="265.208955224" y="-311.0"/>
      <point x="345.895522388" y="-228.343283582"/>
      <point x="375" y="-147" type="qcurve" smooth="yes"/>
      <point x="414" y="-37" type="line"/>
      <point x="53" y="1059" type="line"/>
      <point x="195" y="1059" type="line"/>
      <point x="477" y="127" type="line"/>
    </contour>
  </outline>
</glyph>
<glyph name="z" format="1">
  <advance width="856.064"/>
  <unicode hex="007A"/>
  <outline>
    <contour>
      <point x="791" y="98" type="line"/>
      <point x="791" y="0" type="line"/>
      <point x="63" y="0" type="line"/>
      <point x="63" y="86" type="line"/>
      <point x="637" y="952" type="line"/>
      <point x="94" y="952" type="line"/>
      <point x="94" y="1051" type="line"/>
      <point x="791" y="1051" type="line"/>
      <point x="791" y="965" type="line"/>
      <point x="217" y="98" type="line"/>
    </contour>
  </outline>
</glyph>
<glyph name="section" format="1">
  <advance width="1179.648"/>
  <unicode hex="00A7"/>
  <outline>
    <contour>
      <point x="690" y="1028" type="qcurve" smooth="yes"/>
      <point x="908.656716418" y="968.298507463"/>
      <point x="1100.0" y="815.746268657"/>
      <point x="1100" y="715" type="qcurve" smooth="yes"/>
      <point x="1100.0" y="618.731343284"/>
      <point x="918.417910448" y="471.447761194"/>
      <point x="752" y="461" type="qcurve"/>
      <point x="752" y="449" type="line"/>
      <point x="867.671641791" y="413.179104478"/>
      <point x="969.0" y="294.850746269"/>
      <point x="969" y="215" type="qcurve" smooth="yes"/>
      <point x="969.0" y="106.791044776"/>
      <point x="767.462686567" y="-25.0"/>
      <point x="610" y="-25" type="qcurve" smooth="yes"/>
      <point x="491.343283582" y="-25.0"/>
      <point x="305.746268657" y="24.2686567164"/>
      <point x="205" y="78" type="qcurve"/>
      <point x="262" y="174" type="line"/>
      <point x="349.313432836" y="123.253731343"/>
      <point x="516.746268657" y="74.0"/>
      <point x="616" y="74" type="qcurve" smooth="yes"/>
      <point x="720.47761194" y="74.0"/>
      <point x="846.0" y="150.791044776"/>
      <point x="846" y="209" type="qcurve" smooth="yes"/>
      <point x="846.0" y="277.656716418"/>
      <point x="726.313432836" y="381.820895522"/>
      <point x="489" y="446" type="qcurve" smooth="yes"/>
      <point x="271.089552239" y="505.701492537"/>
      <point x="80.0" y="659.253731343"/>
      <point x="80" y="760" type="qcurve" smooth="yes"/>
      <point x="80.0" y="856.268656716"/>
      <point x="261.582089552" y="1002.80597015"/>
      <point x="428" y="1014" type="qcurve"/>
      <point x="428" y="1026" type="line"/>
      <point x="311.582089552" y="1061.07462687"/>
      <point x="211.0" y="1180.14925373"/>
      <point x="211" y="1260" type="qcurve" smooth="yes"/>
      <point x="211.0" y="1368.20895522"/>
      <point x="411.537313433" y="1499.0"/>
      <point x="569" y="1499" type="qcurve" smooth="yes"/>
      <point x="688.402985075" y="1499.0"/>
      <point x="874.253731343" y="1449.98507463"/>
      <point x="975" y="1397" type="qcurve"/>
      <point x="918" y="1300" type="line"/>
      <point x="830.686567164" y="1350.74626866"/>
      <point x="662.253731343" y="1401.0"/>
      <point x="563" y="1401" type="qcurve" smooth="yes"/>
      <point x="459.268656716" y="1401.0"/>
      <point x="334.0" y="1323.46268657"/>
      <point x="334" y="1266" type="qcurve" smooth="yes"/>
      <point x="334.0" y="1197.34328358"/>
      <point x="453.432835821" y="1092.17910448"/>
    </contour>
    <contour>
      <point x="713" y="516" type="qcurve" smooth="yes"/>
      <point x="827.179104478" y="516.0"/>
      <point x="983.0" y="612.417910448"/>
      <point x="983" y="696" type="qcurve" smooth="yes"/>
      <point x="983.0" y="764.656716418"/>
      <point x="855.970149254" y="878.23880597"/>
      <point x="700" y="926" type="qcurve" smooth="yes"/>
      <point x="642.537313433" y="942.417910448"/>
      <point x="532.671641791" y="958.0"/>
      <point x="467" y="958" type="qcurve" smooth="yes"/>
      <point x="352.074626866" y="958.0"/>
      <point x="197.0" y="862.328358209"/>
      <point x="197" y="778" type="qcurve" smooth="yes"/>
      <point x="197.0" y="709.343283582"/>
      <point x="323.029850746" y="596.014925373"/>
      <point x="479" y="549" type="qcurve" smooth="yes"/>
      <point x="537.208955224" y="531.835820896"/>
      <point x="647.328358209" y="516.0"/>
    </contour>
  </outline>
</glyph>
<glyph name="ordfeminine" format="1">
  <advance width="774.144"/>
  <unicode hex="00AA"/>
  <outline>
    <contour>
      <point x="692" y="823" type="qcurve"/>
      <point x="692" y="764" type="line"/>
      <point x="614.388059701" y="761.014925373"/>
      <point x="528.955223881" y="823.805970149"/>
      <point x="520" y="885" type="qcurve"/>
      <point x="470.0" y="820.820895522"/>
      <point x="357.686567164" y="760.0"/>
      <point x="295" y="760" type="qcurve" smooth="yes"/>
      <point x="215.149253731" y="760.0"/>
      <point x="98.0" y="855.223880597"/>
      <point x="98" y="950" type="qcurve" smooth="yes"/>
      <point x="98.0" y="1055.97014925"/>
      <point x="310.029850746" y="1192.0"/>
      <point x="516" y="1192" type="qcurve"/>
      <point x="516" y="1268" type="line" smooth="yes"/>
      <point x="516.0" y="1339.64179104"/>
      <point x="461.208955224" y="1405.0"/>
      <point x="403" y="1405" type="qcurve" smooth="yes"/>
      <point x="350.014925373" y="1405.0"/>
      <point x="244.208955224" y="1370.07462687"/>
      <point x="186" y="1335" type="qcurve"/>
      <point x="154" y="1409" type="line"/>
      <point x="215.194029851" y="1441.08955224"/>
      <point x="338.149253731" y="1485.0"/>
      <point x="418" y="1485" type="qcurve" smooth="yes"/>
      <point x="521.731343284" y="1485.0"/>
      <point x="618.0" y="1381.70149254"/>
      <point x="618" y="1272" type="qcurve" smooth="yes"/>
      <point x="618" y="913" type="line" smooth="yes"/>
      <point x="618.0" y="874.940298507"/>
      <point x="650.955223881" y="825.985074627"/>
    </contour>
    <contour>
      <point x="322" y="834" type="qcurve" smooth="yes"/>
      <point x="376.47761194" y="834.0"/>
      <point x="474.955223881" y="891.791044776"/>
      <point x="516" y="950" type="qcurve"/>
      <point x="516" y="1137" type="line"/>
      <point x="346.597014925" y="1137.0"/>
      <point x="199.0" y="1028.3880597"/>
      <point x="199" y="956" type="qcurve" smooth="yes"/>
      <point x="199.0" y="898.537313433"/>
      <point x="268.268656716" y="834.0"/>
    </contour>
    <contour>
      <point x="668" y="602" type="line"/>
      <point x="668" y="526" type="line"/>
      <point x="104" y="526" type="line"/>
      <point x="104" y="602" type="line"/>
    </contour>
  </outline>
</glyph>
<glyph name="uni00AE" format="1">
  <advance width="1710.08"/>
  <unicode hex="00AE"/>
  <outline>
    <contour>
      <point x="948" y="700" type="qcurve"/>
      <point x="1190" y="332" type="line"/>
      <point x="1063" y="332" type="line"/>
      <point x="829" y="690" type="line"/>
      <point x="717" y="690" type="line"/>
      <point x="717" y="332" type="line"/>
      <point x="604" y="332" type="line"/>
      <point x="604" y="1163" type="line"/>
      <point x="872" y="1163" type="line" smooth="yes"/>
      <point x="1002.59701493" y="1163.0"/>
      <point x="1155.0" y="1044.17910448"/>
      <point x="1155" y="930" type="qcurve" smooth="yes"/>
      <point x="1155.0" y="832.23880597"/>
      <point x="1042.7761194" y="717.164179104"/>
    </contour>
    <contour>
      <point x="856" y="1499" type="qcurve" smooth="yes"/>
      <point x="1176.89552239" y="1499.0"/>
      <point x="1618.0" y="1059.3880597"/>
      <point x="1618" y="737" type="qcurve" smooth="yes"/>
      <point x="1618.0" y="416.104477612"/>
      <point x="1176.3880597" y="-25.0"/>
      <point x="854" y="-25" type="qcurve" smooth="yes"/>
      <point x="533.104477612" y="-25.0"/>
      <point x="94.0" y="414.611940299"/>
      <point x="94" y="737" type="qcurve" smooth="yes"/>
      <point x="94.0" y="1057.89552239"/>
      <point x="533.611940299" y="1499.0"/>
    </contour>
    <contour>
      <point x="856" y="41" type="qcurve" smooth="yes"/>
      <point x="1150.7761194" y="41.0"/>
      <point x="1542.0" y="442.223880597"/>
      <point x="1542" y="737" type="qcurve" smooth="yes"/>
      <point x="1542.0" y="1032.52238806"/>
      <point x="1148.7761194" y="1434.0"/>
      <point x="854" y="1434" type="qcurve" smooth="yes"/>
      <point x="560.71641791" y="1434.0"/>
      <point x="168.0" y="1032.52238806"/>
      <point x="168" y="737" type="qcurve" smooth="yes"/>
      <point x="168.0" y="442.223880597"/>
      <point x="561.223880597" y="41.0"/>
    </contour>
    <contour>
      <point x="868" y="780" type="line" smooth="yes"/>
      <point x="952.328358209" y="780.0"/>
      <point x="1042.0" y="851.134328358"/>
      <point x="1042" y="928" type="qcurve" smooth="yes"/>
      <point x="1042.0" y="998.149253731"/>
      <point x="951.313432836" y="1073.0"/>
      <point x="864" y="1073" type="qcurve" smooth="yes"/>
      <point x="715" y="1073" type="line"/>
      <point x="715" y="780" type="line"/>
    </contour>
  </outline>
</glyph>
<glyph name="acute" format="1">
  <advance width="1024.0"/>
  <unicode hex="00B4"/>
  <outline>
    <contour>
      <point x="535" y="1522" type="line"/>
      <point x="721" y="1522" type="line"/>
      <point x="440" y="1212" type="line"/>
      <point x="348" y="1212" type="line"/>
    </contour>
  </outline>
</glyph>
<glyph name="paragraph" format="1">
  <advance width="1081.344"/>
  <unicode hex="00B6"/>
  <outline>
    <contour>
      <point x="909" y="1475" type="line"/>
      <point x="909" y="0" type="line"/>
      <point x="813" y="0" type="line"/>
      <point x="813" y="1389" type="line"/>
      <point x="608" y="1389" type="line"/>
      <point x="608" y="0" type="line"/>
      <point x="514" y="0" type="line"/>
      <point x="514" y="743" type="line"/>
      <point x="299.820895522" y="746.731343284"/>
      <point x="72.0" y="941.074626866"/>
      <point x="72" y="1106" type="qcurve" smooth="yes"/>
      <point x="72.0" y="1282.86567164"/>
      <point x="314.029850746" y="1475.0"/>
      <point x="520" y="1475" type="qcurve" smooth="yes"/>
    </contour>
  </outline>
</glyph>
<glyph name="periodcentered" format="1">
  <advance width="380.928"/>
  <unicode hex="00B7"/>
  <outline>
    <contour>
      <point x="190" y="672" type="qcurve" smooth="yes"/>
      <point x="233.28358209" y="672.0"/>
      <point x="291.0" y="613.776119403"/>
      <point x="291" y="569" type="qcurve" smooth="yes"/>
      <point x="291.0" y="524.970149254"/>
      <point x="233.28358209" y="467.0"/>
      <point x="190" y="467" type="qcurve" smooth="yes"/>
      <point x="145.970149254" y="467.0"/>
      <point x="88.0" y="524.970149254"/>
      <point x="88" y="569" type="qcurve" smooth="yes"/>
      <point x="88.0" y="613.776119403"/>
      <point x="145.970149254" y="672.0"/>
    </contour>
  </outline>
</glyph>
<glyph name="ordmasculine" format="1">
  <advance width="774.144"/>
  <unicode hex="00BA"/>
  <outline>
    <contour>
      <point x="387" y="1489" type="qcurve" smooth="yes"/>
      <point x="515.358208955" y="1489.0"/>
      <point x="672.0" y="1283.43283582"/>
      <point x="672" y="1120" type="qcurve" smooth="yes"/>
      <point x="672.0" y="958.059701493"/>
      <point x="515.358208955" y="754.0"/>
      <point x="387" y="754" type="qcurve" smooth="yes"/>
      <point x="258.641791045" y="754.0"/>
      <point x="102.0" y="958.567164179"/>
      <point x="102" y="1122" type="qcurve" smooth="yes"/>
      <point x="102.0" y="1285.43283582"/>
      <point x="258.641791045" y="1489.0"/>
    </contour>
    <contour>
      <point x="387" y="831" type="qcurve" smooth="yes"/>
      <point x="472.820895522" y="831.0"/>
      <point x="567.0" y="989.641791045"/>
      <point x="567" y="1118" type="qcurve" smooth="yes"/>
      <point x="567.0" y="1250.8358209"/>
      <point x="472.820895522" y="1413.0"/>
      <point x="387" y="1413" type="qcurve" smooth="yes"/>
      <point x="301.179104478" y="1413.0"/>
      <point x="207.0" y="1253.85074627"/>
      <point x="207" y="1124" type="qcurve" smooth="yes"/>
      <point x="207.0" y="992.656716418"/>
      <point x="301.179104478" y="831.0"/>
    </contour>
    <contour>
      <point x="657" y="602" type="line"/>
      <point x="657" y="526" type="line"/>
      <point x="117" y="526" type="line"/>
      <point x="117" y="602" type="line"/>
    </contour>
  </outline>
</glyph>
<glyph name="AE" format="1">
  <advance width="1875.968"/>
  <unicode hex="00C6"/>
  <outline>
    <contour>
      <point x="1796" y="117" type="line"/>
      <point x="1796" y="0" type="line"/>
      <point x="946" y="0" type="line"/>
      <point x="946" y="393" type="line"/>
      <point x="383" y="393" type="line"/>
      <point x="176" y="0" type="line"/>
      <point x="27" y="0" type="line"/>
      <point x="807" y="1475" type="line"/>
      <point x="1772" y="1475" type="line"/>
      <point x="1772" y="1358" type="line"/>
      <point x="1090" y="1358" type="line"/>
      <point x="1090" y="827" type="line"/>
      <point x="1653" y="827" type="line"/>
      <point x="1653" y="715" type="line"/>
      <point x="1090" y="715" type="line"/>
      <point x="1090" y="117" type="line"/>
    </contour>
    <contour>
      <point x="434" y="500" type="line"/>
      <point x="946" y="500" type="line"/>
      <point x="946" y="1358" type="line"/>
      <point x="887" y="1358" type="line"/>
    </contour>
  </outline>
</glyph>
<glyph name="Ccedilla" format="1">
  <advance width="1185.792"/>
  <unicode hex="00C7"/>
  <outline>
    <contour>
      <point x="973" y="457" type="qcurve"/>
      <point x="1106" y="422" type="line"/>
      <point x="1063.46268657" y="232.447761194"/>
      <point x="849.820895522" y="-11.8059701493"/>
      <point x="664" y="-23" type="qcurve"/>
      <point x="612" y="-111" type="line"/>
      <point x="635.134328358" y="-101.298507463"/>
      <point x="681.388059701" y="-92.0"/>
      <point x="709" y="-92" type="qcurve" smooth="yes"/>
      <point x="774.671641791" y="-92.0"/>
      <point x="854.0" y="-151.298507463"/>
      <point x="854" y="-211" type="qcurve" smooth="yes"/>
      <point x="854.0" y="-304.28358209"/>
      <point x="630.955223881" y="-393.985074627"/>
      <point x="422" y="-391" type="qcurve"/>
      <point x="422" y="-342" type="line"/>
      <point x="597.373134328" y="-339.014925373"/>
      <point x="741.0" y="-277.746268657"/>
      <point x="741" y="-227" type="qcurve" smooth="yes"/>
      <point x="741.0" y="-199.388059701"/>
      <point x="700.567164179" y="-168.0"/>
      <point x="664" y="-168" type="qcurve" smooth="yes"/>
      <point x="629.671641791" y="-168.0"/>
      <point x="577.119402985" y="-180.313432836"/>
      <point x="551" y="-193" type="qcurve"/>
      <point x="504" y="-164" type="line"/>
      <point x="592" y="-23" type="line"/>
      <point x="365.880597015" y="-5.83582089552"/>
      <point x="109.0" y="396.134328358"/>
      <point x="109" y="723" type="qcurve" smooth="yes"/>
      <point x="109" y="750" type="line" smooth="yes"/>
      <point x="109.0" y="1090.29850746"/>
      <point x="386.731343284" y="1499.0"/>
      <point x="633" y="1499" type="qcurve" smooth="yes"/>
      <point x="825.537313433" y="1499.0"/>
      <point x="1052.71641791" y="1272.04477612"/>
      <point x="1096" y="1081" type="qcurve"/>
      <point x="963" y="1042" type="line"/>
      <point x="922.701492537" y="1207.67164179"/>
      <point x="764.343283582" y="1384.0"/>
      <point x="633" y="1384" type="qcurve" smooth="yes"/>
      <point x="443.447761194" y="1384.0"/>
      <point x="256.0" y="1030.65671642"/>
      <point x="256" y="762" type="qcurve" smooth="yes"/>
      <point x="256" y="717" type="line" smooth="yes"/>
      <point x="256.0" y="446.104477612"/>
      <point x="443.955223881" y="90.0"/>
      <point x="635" y="90" type="qcurve" smooth="yes"/>
      <point x="773.805970149" y="90.0"/>
      <point x="936.432835821" y="289.835820896"/>
    </contour>
  </outline>
</glyph>
<glyph name="multiply" format="1">
  <advance width="1228.8"/>
  <unicode hex="00D7"/>
  <outline>
    <contour>
      <point x="694" y="727" type="line"/>
      <point x="1085" y="344" type="line"/>
      <point x="997" y="256" type="line"/>
      <point x="614" y="647" type="line"/>
      <point x="231" y="256" type="line"/>
      <point x="143" y="344" type="line"/>
      <point x="535" y="727" type="line"/>
      <point x="143" y="1110" type="line"/>
      <point x="231" y="1198" type="line"/>
      <point x="614" y="807" type="line"/>
      <point x="997" y="1198" type="line"/>
      <point x="1085" y="1110" type="line"/>
    </contour>
  </outline>
</glyph>
<glyph name="Oslash" format="1">
  <advance width="1263.616"/>
  <unicode hex="00D8"/>
  <outline>
    <contour>
      <point x="1155" y="752" type="qcurve" smooth="yes"/>
      <point x="1155" y="725" type="line" smooth="yes"/>
      <point x="1155.0" y="383.955223881"/>
      <point x="877.268656716" y="-25.0"/>
      <point x="631" y="-25" type="qcurve" smooth="yes"/>
      <point x="548.164179104" y="-25.0"/>
      <point x="404.208955224" y="26.2388059701"/>
      <point x="346" y="74" type="qcurve"/>
      <point x="211" y="-195" type="line"/>
      <point x="109" y="-195" type="line"/>
      <point x="276" y="137" type="line"/>
      <point x="193.910447761" y="231.776119403"/>
      <point x="109.0" y="533.447761194"/>
      <point x="109" y="723" type="qcurve" smooth="yes"/>
      <point x="109" y="750" type="line" smooth="yes"/>
      <point x="109.0" y="1090.29850746"/>
      <point x="386.223880597" y="1499.0"/>
      <point x="631" y="1499" type="qcurve" smooth="yes"/>
      <point x="713.089552239" y="1499.0"/>
      <point x="859.029850746" y="1449.50746269"/>
      <point x="915" y="1401" type="qcurve"/>
      <point x="1051" y="1673" type="line"/>
      <point x="1155" y="1673" type="line"/>
      <point x="985" y="1339" type="line"/>
      <point x="1066.34328358" y="1242.73134328"/>
      <point x="1155.0" y="943.044776119"/>
    </contour>
    <contour>
      <point x="631" y="86" type="qcurve" smooth="yes"/>
      <point x="820.552238806" y="86.0"/>
      <point x="1012.0" y="437.626865672"/>
      <point x="1012" y="713" type="qcurve" smooth="yes"/>
      <point x="1012" y="758" type="line" smooth="yes"/>
      <point x="1012.0" y="892.328358209"/>
      <point x="964.253731343" y="1132.89552239"/>
      <point x="915" y="1212" type="qcurve"/>
      <point x="401" y="186" type="line"/>
      <point x="445.776119403" y="137.492537313"/>
      <point x="560.850746269" y="86.0"/>
    </contour>
    <contour>
      <point x="348" y="264" type="qcurve"/>
      <point x="860" y="1288" type="line"/>
      <point x="815.970149254" y="1337.25373134"/>
      <point x="701.149253731" y="1389.0"/>
      <point x="631" y="1389" type="qcurve" smooth="yes"/>
      <point x="442.940298507" y="1389.0"/>
      <point x="252.0" y="1035.13432836"/>
      <point x="252" y="762" type="qcurve" smooth="yes"/>
      <point x="252" y="717" type="line" smooth="yes"/>
      <point x="252.0" y="582.671641791"/>
      <point x="298.0" y="343.850746269"/>
    </contour>
  </outline>
</glyph>
<glyph name="Thorn" format="1">
  <advance width="1169.408"/>
  <unicode hex="00DE"/>
  <outline>
    <contour>
      <point x="606" y="1182" type="line" smooth="yes"/>
      <point x="832.119402985" y="1182.0"/>
      <point x="1087.0" y="964.985074627"/>
      <point x="1087" y="762" type="qcurve" smooth="yes"/>
      <point x="1087.0" y="556.776119403"/>
      <point x="831.074626866" y="334.0"/>
      <point x="596" y="334" type="qcurve" smooth="yes"/>
      <point x="319" y="334" type="line"/>
      <point x="319" y="0" type="line"/>
      <point x="172" y="0" type="line"/>
      <point x="172" y="1475" type="line"/>
      <point x="319" y="1475" type="line"/>
      <point x="319" y="1182" type="line"/>
    </contour>
    <contour>
      <point x="600" y="446" type="line" smooth="yes"/>
      <point x="763.432835821" y="446.0"/>
      <point x="942.0" y="603.52238806"/>
      <point x="942" y="758" type="qcurve" smooth="yes"/>
      <point x="942.0" y="907.253731343"/>
      <point x="764.388059701" y="1071.0"/>
      <point x="592" y="1071" type="qcurve" smooth="yes"/>
      <point x="315" y="1071" type="line"/>
      <point x="315" y="446" type="line"/>
    </contour>
  </outline>
</glyph>
<glyph name="germandbls" format="1">
  <advance width="1181.696"/>
  <unicode hex="00DF"/>
  <outline>
    <contour>
      <point x="702" y="846" type="line"/>
      <point x="852.0" y="807.940298507"/>
      <point x="1096.0" y="575.0"/>
      <point x="1096" y="375" type="qcurve" smooth="yes"/>
      <point x="1096.0" y="195.895522388"/>
      <point x="882.432835821" y="-18.0"/>
      <point x="719" y="-18" type="qcurve" smooth="yes"/>
      <point x="621.23880597" y="-18.0"/>
      <point x="489.76119403" y="36.9552238806"/>
      <point x="442" y="78" type="qcurve"/>
      <point x="489" y="164" type="line"/>
      <point x="533.776119403" y="124.447761194"/>
      <point x="630.641791045" y="80.0"/>
      <point x="709" y="80" type="qcurve" smooth="yes"/>
      <point x="814.223880597" y="80.0"/>
      <point x="961.0" y="231.447761194"/>
      <point x="961" y="371" type="qcurve" smooth="yes"/>
      <point x="961.0" y="559.059701493"/>
      <point x="709.910447761" y="780.343283582"/>
      <point x="492" y="799" type="qcurve"/>
      <point x="492" y="891" type="line"/>
      <point x="659.910447761" y="896.970149254"/>
      <point x="827.0" y="1075.10447761"/>
      <point x="827" y="1196" type="qcurve" smooth="yes"/>
      <point x="827.0" y="1305.70149254"/>
      <point x="685.358208955" y="1456.0"/>
      <point x="557" y="1456" type="qcurve" smooth="yes"/>
      <point x="425.656716418" y="1456.0"/>
      <point x="279.0" y="1278.95522388"/>
      <point x="279" y="1120" type="qcurve" smooth="yes"/>
      <point x="279" y="0" type="line"/>
      <point x="143" y="0" type="line"/>
      <point x="143" y="1106" type="line" smooth="yes"/>
      <point x="143.0" y="1313.46268657"/>
      <point x="366.970149254" y="1554.0"/>
      <point x="561" y="1554" type="qcurve" smooth="yes"/>
      <point x="749.059701493" y="1554.0"/>
      <point x="961.0" y="1354.50746269"/>
      <point x="961" y="1206" type="qcurve" smooth="yes"/>
      <point x="961.0" y="1073.1641791"/>
      <point x="810.955223881" y="896.567164179"/>
      <point x="702" y="860" type="qcurve"/>
    </contour>
  </outline>
</glyph>
<glyph name="ae" format="1">
  <advance width="1542.144"/>
  <unicode hex="00E6"/>
  <outline>
    <contour>
      <point x="1460" y="528" type="qcurve" smooth="yes"/>
      <point x="1460" y="504" type="line"/>
      <point x="819" y="504" type="line"/>
      <point x="821.985074627" y="295.791044776"/>
      <point x="986.179104478" y="80.0"/>
      <point x="1122" y="80" type="qcurve" smooth="yes"/>
      <point x="1201.85074627" y="80.0"/>
      <point x="1332.82089552" y="145.298507463"/>
      <point x="1397" y="205" type="qcurve"/>
      <point x="1452" y="125" type="line"/>
      <point x="1381.85074627" y="59.328358209"/>
      <point x="1215.70149254" y="-20.0"/>
      <point x="1106" y="-20" type="qcurve" smooth="yes"/>
      <point x="991.074626866" y="-20.0"/>
      <point x="808.985074627" y="95.5373134328"/>
      <point x="756" y="203" type="qcurve"/>
      <point x="670.179104478" y="98.5223880597"/>
      <point x="468.447761194" y="-16.0"/>
      <point x="358" y="-16" type="qcurve" smooth="yes"/>
      <point x="234.865671642" y="-16.0"/>
      <point x="66.0" y="128.179104478"/>
      <point x="66" y="264" type="qcurve" smooth="yes"/>
      <point x="66.0" y="425.940298507"/>
      <point x="382.776119403" y="623.507462687"/>
      <point x="688" y="625" type="qcurve"/>
      <point x="688" y="766" type="line" smooth="yes"/>
      <point x="688.0" y="863.76119403"/>
      <point x="593.791044776" y="969.0"/>
      <point x="502" y="969" type="qcurve" smooth="yes"/>
      <point x="431.850746269" y="969.0"/>
      <point x="281.059701493" y="914.746268657"/>
      <point x="193" y="864" type="qcurve"/>
      <point x="150" y="956" type="line"/>
      <point x="238.059701493" y="1003.76119403"/>
      <point x="414.776119403" y="1069.0"/>
      <point x="520" y="1069" type="qcurve" smooth="yes"/>
      <point x="639.402985075" y="1069.0"/>
      <point x="759.074626866" y="947.253731343"/>
      <point x="774" y="848" type="qcurve"/>
      <point x="788" y="848" type="line"/>
      <point x="832.776119403" y="954.71641791"/>
      <point x="979.776119403" y="1079.0"/>
      <point x="1085" y="1079" type="qcurve" smooth="yes"/>
      <point x="1261.11940299" y="1079.0"/>
      <point x="1460.0" y="777.253731343"/>
    </contour>
    <contour>
      <point x="395" y="78" type="qcurve" smooth="yes"/>
      <point x="476.343283582" y="78.0"/>
      <point x="651.865671642" y="175.731343284"/>
      <point x="725" y="272" type="qcurve"/>
      <point x="706.343283582" y="325.731343284"/>
      <point x="688.0" y="449.343283582"/>
      <point x="688" y="518" type="qcurve" smooth="yes"/>
      <point x="688" y="553" type="line"/>
      <point x="428.298507463" y="554.492537313"/>
      <point x="193.0" y="387.940298507"/>
      <point x="193" y="276" type="qcurve" smooth="yes"/>
      <point x="193.0" y="181.970149254"/>
      <point x="306.194029851" y="78.0"/>
    </contour>
    <contour>
      <point x="821" y="584" type="qcurve"/>
      <point x="1329" y="584" type="line"/>
      <point x="1318.55223881" y="779.52238806"/>
      <point x="1196.43283582" y="987.0"/>
      <point x="1083" y="987" type="qcurve" smooth="yes"/>
      <point x="965.835820896" y="987.0"/>
      <point x="828.462686567" y="766.835820896"/>
    </contour>
  </outline>
</glyph>
<glyph name="eth" format="1">
  <advance width="1011.712"/>
  <unicode hex="00F0"/>
  <outline>
    <contour>
      <point x="920" y="584" type="qcurve" smooth="yes"/>
      <point x="920" y="559" type="line" smooth="yes"/>
      <point x="920.0" y="293.328358209"/>
      <point x="696.537313433" y="-20.0"/>
      <point x="504" y="-20" type="qcurve" smooth="yes"/>
      <point x="312.955223881" y="-20.0"/>
      <point x="86.0" y="281.940298507"/>
      <point x="86" y="520" type="qcurve" smooth="yes"/>
      <point x="86" y="535" type="line" smooth="yes"/>
      <point x="86.0" y="773.059701493"/>
      <point x="303.149253731" y="1075.0"/>
      <point x="483" y="1075" type="qcurve" smooth="yes"/>
      <point x="591.955223881" y="1075.0"/>
      <point x="742.47761194" y="938.23880597"/>
      <point x="788" y="836" type="qcurve"/>
      <point x="801" y="836" type="line"/>
      <point x="785.328358209" y="982.268656716"/>
      <point x="664.597014925" y="1234.76119403"/>
      <point x="584" y="1337" type="qcurve"/>
      <point x="348" y="1204" type="line"/>
      <point x="348" y="1290" type="line"/>
      <point x="530" y="1395" type="line"/>
      <point x="501.641791045" y="1428.58208955"/>
      <point x="437.328358209" y="1492.3880597"/>
      <point x="403" y="1520" type="qcurve"/>
      <point x="518" y="1561" type="line"/>
      <point x="544.119402985" y="1533.3880597"/>
      <point x="600.880597015" y="1474.08955224"/>
      <point x="627" y="1442" type="qcurve"/>
      <point x="842" y="1561" type="line"/>
      <point x="842" y="1475" type="line"/>
      <point x="678" y="1382" type="line"/>
      <point x="777.253731343" y="1252.14925373"/>
      <point x="920.0" y="871.313432836"/>
    </contour>
    <contour>
      <point x="504" y="74" type="qcurve" smooth="yes"/>
      <point x="638.328358209" y="74.0"/>
      <point x="784.0" y="320.0"/>
      <point x="784" y="520" type="qcurve" smooth="yes"/>
      <point x="784" y="535" type="line" smooth="yes"/>
      <point x="784.0" y="736.492537313"/>
      <point x="638.328358209" y="985.0"/>
      <point x="504" y="985" type="qcurve" smooth="yes"/>
      <point x="369.671641791" y="985.0"/>
      <point x="221.0" y="739.0"/>
      <point x="221" y="539" type="qcurve" smooth="yes"/>
      <point x="221" y="524" type="line" smooth="yes"/>
      <point x="221.0" y="321.014925373"/>
      <point x="369.671641791" y="74.0"/>
    </contour>
  </outline>
</glyph>
<glyph name="divide" format="1">
  <advance width="1228.8"/>
  <unicode hex="00F7"/>
  <outline>
    <contour>
      <point x="614" y="416" type="qcurve" smooth="yes"/>
      <point x="658.776119403" y="416.0"/>
      <point x="717.0" y="357.776119403"/>
      <point x="717" y="313" type="qcurve" smooth="yes"/>
      <point x="717.0" y="268.970149254"/>
      <point x="658.776119403" y="209.0"/>
      <point x="614" y="209" type="qcurve" smooth="yes"/>
      <point x="569.970149254" y="209.0"/>
      <point x="512.0" y="268.970149254"/>
      <point x="512" y="313" type="qcurve" smooth="yes"/>
      <point x="512.0" y="357.776119403"/>
      <point x="569.970149254" y="416.0"/>
    </contour>
    <contour>
      <point x="614" y="1245" type="qcurve" smooth="yes"/>
      <point x="658.776119403" y="1245.0"/>
      <point x="717.0" y="1185.02985075"/>
      <point x="717" y="1141" type="qcurve" smooth="yes"/>
      <point x="717.0" y="1096.2238806"/>
      <point x="658.776119403" y="1038.0"/>
      <point x="614" y="1038" type="qcurve" smooth="yes"/>
      <point x="569.970149254" y="1038.0"/>
      <point x="512.0" y="1096.2238806"/>
      <point x="512" y="1141" type="qcurve" smooth="yes"/>
      <point x="512.0" y="1185.02985075"/>
      <point x="569.970149254" y="1245.0"/>
    </contour>
    <contour>
      <point x="1135" y="788" type="line"/>
      <point x="1135" y="666" type="line"/>
      <point x="94" y="666" type="line"/>
      <point x="94" y="788" type="line"/>
    </contour>
  </outline>
</glyph>
<glyph name="lslash" format="1">
  <advance width="604.16"/>
  <unicode hex="0142"/>
  <outline>
    <contour>
      <point x="547" y="926" type="line"/>
      <point x="547" y="807" type="line"/>
      <point x="369" y="725" type="line"/>
      <point x="369" y="0" type="line"/>
      <point x="236" y="0" type="line"/>
      <point x="236" y="670" type="line"/>
      <point x="57" y="586" type="line"/>
      <point x="57" y="705" type="line"/>
      <point x="236" y="784" type="line"/>
      <point x="236" y="1511" type="line"/>
      <point x="369" y="1559" type="line"/>
      <point x="369" y="842" type="line"/>
    </contour>
  </outline>
</glyph>
<glyph name="oe" format="1">
  <advance width="1642.496"/>
  <unicode hex="0153"/>
  <outline>
    <contour>
      <point x="1559" y="528" type="qcurve" smooth="yes"/>
      <point x="1559" y="504" type="line"/>
      <point x="918" y="504" type="line"/>
      <point x="920.985074627" y="295.791044776"/>
      <point x="1084.43283582" y="80.0"/>
      <point x="1221" y="80" type="qcurve" smooth="yes"/>
      <point x="1300.10447761" y="80.0"/>
      <point x="1432.31343284" y="145.298507463"/>
      <point x="1495" y="205" type="qcurve"/>
      <point x="1550" y="125" type="line"/>
      <point x="1479.85074627" y="59.328358209"/>
      <point x="1317.97014925" y="-20.0"/>
      <point x="1212" y="-20" type="qcurve" smooth="yes"/>
      <point x="1074.68656716" y="-20.0"/>
      <point x="898.567164179" y="134.970149254"/>
      <point x="862" y="279" type="qcurve"/>
      <point x="846" y="279" type="line"/>
      <point x="809.432835821" y="145.417910448"/>
      <point x="635.820895522" y="-20.0"/>
      <point x="500" y="-20" type="qcurve" smooth="yes"/>
      <point x="311.940298507" y="-20.0"/>
      <point x="86.0" y="281.940298507"/>
      <point x="86" y="520" type="qcurve" smooth="yes"/>
      <point x="86" y="535" type="line" smooth="yes"/>
      <point x="86.0" y="773.059701493"/>
      <point x="311.432835821" y="1079.0"/>
      <point x="498" y="1079" type="qcurve" smooth="yes"/>
      <point x="632.328358209" y="1079.0"/>
      <point x="810.925373134" y="914.059701493"/>
      <point x="846" y="776" type="qcurve"/>
      <point x="862" y="776" type="line"/>
      <point x="897.074626866" y="914.059701493"/>
      <point x="1063.6119403" y="1079.0"/>
      <point x="1186" y="1079" type="qcurve" smooth="yes"/>
      <point x="1358.3880597" y="1079.0"/>
      <point x="1559.0" y="777.253731343"/>
    </contour>
    <contour>
      <point x="504" y="74" type="qcurve" smooth="yes"/>
      <point x="638.328358209" y="74.0"/>
      <point x="784.0" y="320.0"/>
      <point x="784" y="520" type="qcurve" smooth="yes"/>
      <point x="784" y="535" type="line" smooth="yes"/>
      <point x="784.0" y="736.492537313"/>
      <point x="638.328358209" y="985.0"/>
      <point x="504" y="985" type="qcurve" smooth="yes"/>
      <point x="369.671641791" y="985.0"/>
      <point x="221.0" y="739.0"/>
      <point x="221" y="539" type="qcurve" smooth="yes"/>
      <point x="221" y="524" type="line" smooth="yes"/>
      <point x="221.0" y="321.014925373"/>
      <point x="369.671641791" y="74.0"/>
    </contour>
    <contour>
      <point x="920" y="584" type="qcurve"/>
      <point x="1427" y="584" type="line"/>
      <point x="1416.55223881" y="779.52238806"/>
      <point x="1296.17910448" y="987.0"/>
      <point x="1182" y="987" type="qcurve" smooth="yes"/>
      <point x="1065.58208955" y="987.0"/>
      <point x="927.462686567" y="766.835820896"/>
    </contour>
  </outline>
</glyph>
<glyph name="florin" format="1">
  <advance width="905.216"/>
  <unicode hex="0192"/>
  <outline>
    <contour>
      <point x="688" y="1487" type="qcurve" smooth="yes"/>
      <point x="744.71641791" y="1487.0"/>
      <point x="840.701492537" y="1472.68656716"/>
      <point x="881" y="1460" type="qcurve"/>
      <point x="862" y="1352" type="line"/>
      <point x="820.955223881" y="1366.92537313"/>
      <point x="742.746268657" y="1378.0"/>
      <point x="692" y="1378" type="qcurve" smooth="yes"/>
      <point x="627.820895522" y="1378.0"/>
      <point x="535.671641791" y="1296.32835821"/>
      <point x="520" y="1212" type="qcurve" smooth="yes"/>
      <point x="471" y="940" type="line"/>
      <point x="733" y="940" type="line"/>
      <point x="715" y="836" type="line"/>
      <point x="455" y="836" type="line"/>
      <point x="279" y="-160" type="line" smooth="yes"/>
      <point x="255.865671642" y="-288.358208955"/>
      <point x="112.746268657" y="-389.0"/>
      <point x="12" y="-389" type="qcurve" smooth="yes"/>
      <point x="-29.0447761194" y="-389.0"/>
      <point x="-103.388059701" y="-376.462686567"/>
      <point x="-131" y="-369" type="qcurve"/>
      <point x="-113" y="-264" type="line"/>
      <point x="-85.3880597015" y="-271.462686567"/>
      <point x="-24.5970149254" y="-283.0"/>
      <point x="6" y="-283" type="qcurve" smooth="yes"/>
      <point x="55.2537313433" y="-283.0"/>
      <point x="131.059701493" y="-217.388059701"/>
      <point x="143" y="-145" type="qcurve" smooth="yes"/>
      <point x="315" y="836" type="line"/>
      <point x="106" y="836" type="line"/>
      <point x="123" y="940" type="line"/>
      <point x="334" y="940" type="line"/>
      <point x="383" y="1219" type="line" smooth="yes"/>
      <point x="407.626865672" y="1360.79104478"/>
      <point x="567.104477612" y="1487.0"/>
    </contour>
  </outline>
</glyph>
<glyph name="circumflex" format="1">
  <advance width="1024.0"/>
  <unicode hex="02C6"/>
  <outline>
    <contour>
      <point x="573" y="1528" type="line"/>
      <point x="827" y="1204" type="line"/>
      <point x="748" y="1204" type="line"/>
      <point x="510" y="1423" type="line"/>
      <point x="272" y="1204" type="line"/>
      <point x="197" y="1204" type="line"/>
      <point x="451" y="1528" type="line"/>
    </contour>
  </outline>
</glyph>
<glyph name="ring" format="1">
  <advance width="1024.0"/>
  <unicode hex="02DA"/>
  <outline>
    <contour>
      <point x="512" y="1567" type="qcurve" smooth="yes"/>
      <point x="599.313432836" y="1567.0"/>
      <point x="709.0" y="1461.85074627"/>
      <point x="709" y="1382" type="qcurve" smooth="yes"/>
      <point x="709.0" y="1302.89552239"/>
      <point x="599.313432836" y="1198.0"/>
      <point x="512" y="1198" type="qcurve" smooth="yes"/>
      <point x="424.686567164" y="1198.0"/>
      <point x="315.0" y="1302.89552239"/>
      <point x="315" y="1382" type="qcurve" smooth="yes"/>
      <point x="315.0" y="1461.85074627"/>
      <point x="424.686567164" y="1567.0"/>
    </contour>
    <contour>
      <point x="512" y="1264" type="qcurve" smooth="yes"/>
      <point x="561.253731343" y="1264.0"/>
      <point x="627.0" y="1330.50746269"/>
      <point x="627" y="1382" type="qcurve" smooth="yes"/>
      <point x="627.0" y="1434.23880597"/>
      <point x="561.253731343" y="1501.0"/>
      <point x="512" y="1501" type="qcurve" smooth="yes"/>
      <point x="462.746268657" y="1501.0"/>
      <point x="397.0" y="1434.23880597"/>
      <point x="397" y="1382" type="qcurve" smooth="yes"/>
      <point x="397.0" y="1330.50746269"/>
      <point x="462.746268657" y="1264.0"/>
    </contour>
  </outline>
</glyph>
<glyph name="quotedblright" format="1">
  <advance width="684.032"/>
  <unicode hex="201D"/>
  <outline>
    <contour>
      <point x="156" y="1475" type="line"/>
      <point x="313" y="1475" type="line"/>
      <point x="170" y="1034" type="line"/>
      <point x="86" y="1034" type="line"/>
    </contour>
    <contour>
      <point x="459" y="1475" type="line"/>
      <point x="616" y="1475" type="line"/>
      <point x="475" y="1034" type="line"/>
      <point x="391" y="1034" type="line"/>
    </contour>
  </outline>
</glyph>
<glyph name="dagger" format="1">
  <advance width="886.784"/>
  <unicode hex="2020"/>
  <outline>
    <contour>
      <point x="821" y="1073" type="line"/>
      <point x="821" y="952" type="line"/>
      <point x="485" y="987" type="line"/>
      <point x="520" y="707" type="line"/>
      <point x="471" y="0" type="line"/>
      <point x="414" y="0" type="line"/>
      <point x="367" y="707" type="line"/>
      <point x="401" y="987" type="line"/>
      <point x="66" y="952" type="line"/>
      <point x="66" y="1073" type="line"/>
      <point x="401" y="1036" type="line"/>
      <point x="367" y="1475" type="line"/>
      <point x="520" y="1475" type="line"/>
      <point x="485" y="1036" type="line"/>
    </contour>
  </outline>
</glyph>
<glyph name="daggerdbl" format="1">
  <advance width="948.224"/>
  <unicode hex="2021"/>
  <outline>
    <contour>
      <point x="852" y="481" type="line"/>
      <point x="852" y="360" type="line"/>
      <point x="514" y="397" type="line"/>
      <point x="551" y="0" type="line"/>
      <point x="397" y="0" type="line"/>
      <point x="434" y="397" type="line"/>
      <point x="96" y="360" type="line"/>
      <point x="96" y="481" type="line"/>
      <point x="434" y="446" type="line"/>
      <point x="399" y="737" type="line"/>
      <point x="434" y="1028" type="line"/>
      <point x="96" y="993" type="line"/>
      <point x="96" y="1114" type="line"/>
      <point x="434" y="1077" type="line"/>
      <point x="397" y="1475" type="line"/>
      <point x="551" y="1475" type="line"/>
      <point x="514" y="1077" type="line"/>
      <point x="852" y="1114" type="line"/>
      <point x="852" y="993" type="line"/>
      <point x="514" y="1028" type="line"/>
      <point x="549" y="737" type="line"/>
      <point x="514" y="446" type="line"/>
    </contour>
  </outline>
</glyph>
<glyph name="ellipsis" format="1">
  <advance width="1206.272"/>
  <unicode hex="2026"/>
  <outline>
    <contour>
      <point x="188" y="174" type="qcurve" smooth="yes"/>
      <point x="229.791044776" y="174.0"/>
      <point x="283.0" y="121.044776119"/>
      <point x="283" y="80" type="qcurve" smooth="yes"/>
      <point x="283.0" y="40.447761194"/>
      <point x="229.791044776" y="-14.0"/>
      <point x="188" y="-14" type="qcurve" smooth="yes"/>
      <point x="148.447761194" y="-14.0"/>
      <point x="94.0" y="40.447761194"/>
      <point x="94" y="80" type="qcurve" smooth="yes"/>
      <point x="94.0" y="121.044776119"/>
      <point x="148.447761194" y="174.0"/>
    </contour>
    <contour>
      <point x="604" y="174" type="qcurve" smooth="yes"/>
      <point x="643.552238806" y="174.0"/>
      <point x="698.0" y="121.044776119"/>
      <point x="698" y="80" type="qcurve" smooth="yes"/>
      <point x="698.0" y="40.447761194"/>
      <point x="643.552238806" y="-14.0"/>
      <point x="604" y="-14" type="qcurve" smooth="yes"/>
      <point x="562.955223881" y="-14.0"/>
      <point x="508.0" y="40.447761194"/>
      <point x="508" y="80" type="qcurve" smooth="yes"/>
      <point x="508.0" y="121.044776119"/>
      <point x="562.955223881" y="174.0"/>
    </contour>
    <contour>
      <point x="1018" y="174" type="qcurve" smooth="yes"/>
      <point x="1059.04477612" y="174.0"/>
      <point x="1112.0" y="121.044776119"/>
      <point x="1112" y="80" type="qcurve" smooth="yes"/>
      <point x="1112.0" y="40.447761194"/>
      <point x="1059.04477612" y="-14.0"/>
      <point x="1018" y="-14" type="qcurve" smooth="yes"/>
      <point x="978.447761194" y="-14.0"/>
      <point x="924.0" y="40.447761194"/>
      <point x="924" y="80" type="qcurve" smooth="yes"/>
      <point x="924.0" y="121.044776119"/>
      <point x="978.447761194" y="174.0"/>
    </contour>
  </outline>
</glyph>
<glyph name="guilsinglleft" format="1">
  <advance width="542.72"/>
  <unicode hex="2039"/>
  <outline>
    <contour>
      <point x="213" y="528" type="line"/>
      <point x="471" y="160" type="line"/>
      <point x="379" y="160" type="line"/>
      <point x="57" y="528" type="line"/>
      <point x="379" y="899" type="line"/>
      <point x="471" y="899" type="line"/>
    </contour>
  </outline>
</glyph>
<glyph name="Euro" format="1">
  <advance width="1185.792"/>
  <unicode hex="20AC"/>
  <outline>
    <contour>
      <point x="995" y="434" type="qcurve"/>
      <point x="1106" y="391" type="line"/>
      <point x="1046.29850746" y="207.417910448"/>
      <point x="826.014925373" y="-25.0"/>
      <point x="629" y="-25" type="qcurve" smooth="yes"/>
      <point x="387.208955224" y="-25.0"/>
      <point x="109.0" y="380.462686567"/>
      <point x="109" y="723" type="qcurve" smooth="yes"/>
      <point x="109" y="750" type="line" smooth="yes"/>
      <point x="109.0" y="1090.29850746"/>
      <point x="386.731343284" y="1499.0"/>
      <point x="633" y="1499" type="qcurve" smooth="yes"/>
      <point x="812.850746269" y="1499.0"/>
      <point x="1036.29850746" y="1301.07462687"/>
      <point x="1096" y="1116" type="qcurve"/>
      <point x="981" y="1065" type="line"/>
      <point x="930.253731343" y="1220.97014925"/>
      <point x="766.343283582" y="1386.0"/>
      <point x="635" y="1386" type="qcurve" smooth="yes"/>
      <point x="476.044776119" y="1386.0"/>
      <point x="288.119402985" y="1134.98507463"/>
      <point x="262" y="932" type="qcurve"/>
      <point x="729" y="932" type="line"/>
      <point x="729" y="840" type="line"/>
      <point x="254" y="840" type="line"/>
      <point x="252.507462687" y="818.358208955"/>
      <point x="250.0" y="772.388059701"/>
      <point x="250" y="750" type="qcurve" smooth="yes"/>
      <point x="250" y="727" type="line" smooth="yes"/>
      <point x="250.0" y="697.895522388"/>
      <point x="253.014925373" y="640.119402985"/>
      <point x="256" y="614" type="qcurve"/>
      <point x="729" y="614" type="line"/>
      <point x="729" y="522" type="line"/>
      <point x="264" y="522" type="line"/>
      <point x="293.104477612" y="329.462686567"/>
      <point x="481.537313433" y="88.0"/>
      <point x="639" y="88" type="qcurve" smooth="yes"/>
      <point x="771.835820896" y="88.0"/>
      <point x="947.985074627" y="270.567164179"/>
    </contour>
  </outline>
</glyph>
<glyph name="uni2117" format="1">
  <advance width="1710.08"/>
  <unicode hex="2117"/>
  <outline>
    <contour>
      <point x="856" y="1499" type="qcurve" smooth="yes"/>
      <point x="1176.89552239" y="1499.0"/>
      <point x="1618.0" y="1059.3880597"/>
      <point x="1618" y="737" type="qcurve" smooth="yes"/>
      <point x="1618.0" y="416.104477612"/>
      <point x="1176.3880597" y="-25.0"/>
      <point x="854" y="-25" type="qcurve" smooth="yes"/>
      <point x="533.104477612" y="-25.0"/>
      <point x="94.0" y="414.611940299"/>
      <point x="94" y="737" type="qcurve" smooth="yes"/>
      <point x="94.0" y="1057.89552239"/>
      <point x="533.611940299" y="1499.0"/>
    </contour>
    <contour>
      <point x="856" y="41" type="qcurve" smooth="yes"/>
      <point x="1150.7761194" y="41.0"/>
      <point x="1542.0" y="442.223880597"/>
      <point x="1542" y="737" type="qcurve" smooth="yes"/>
      <point x="1542.0" y="1032.52238806"/>
      <point x="1148.7761194" y="1434.0"/>
      <point x="854" y="1434" type="qcurve" smooth="yes"/>
      <point x="560.71641791" y="1434.0"/>
      <point x="168.0" y="1032.52238806"/>
      <point x="168" y="737" type="qcurve" smooth="yes"/>
      <point x="168.0" y="442.223880597"/>
      <point x="561.223880597" y="41.0"/>
    </contour>
    <contour>
      <point x="895" y="1157" type="line" smooth="yes"/>
      <point x="1026.34328358" y="1157.0"/>
      <point x="1178.0" y="1027.92537313"/>
      <point x="1178" y="913" type="qcurve" smooth="yes"/>
      <point x="1178.0" y="797.328358209"/>
      <point x="1025.80597015" y="666.0"/>
      <point x="887" y="666" type="qcurve" smooth="yes"/>
      <point x="750" y="666" type="line"/>
      <point x="750" y="326" type="line"/>
      <point x="637" y="326" type="line"/>
      <point x="637" y="1157" type="line"/>
    </contour>
    <contour>
      <point x="889" y="756" type="line" smooth="yes"/>
      <point x="972.582089552" y="756.0"/>
      <point x="1065.0" y="834.880597015"/>
      <point x="1065" y="911" type="qcurve" smooth="yes"/>
      <point x="1065.0" y="983.388059701"/>
      <point x="973.805970149" y="1065.0"/>
      <point x="885" y="1065" type="qcurve" smooth="yes"/>
      <point x="748" y="1065" type="line"/>
      <point x="748" y="756" type="line"/>
    </contour>
  </outline>
</glyph>
<glyph name="trademark" format="1">
  <advance width="1597.44"/>
  <unicode hex="2122"/>
  <outline>
    <contour>
      <point x="1458" y="1475" type="line"/>
      <point x="1458" y="778" type="line"/>
      <point x="1374" y="778" type="line"/>
      <point x="1374" y="1393" type="line"/>
      <point x="1370" y="1393" type="line"/>
      <point x="1153" y="778" type="line"/>
      <point x="1055" y="778" type="line"/>
      <point x="838" y="1393" type="line"/>
      <point x="834" y="1393" type="line"/>
      <point x="834" y="778" type="line"/>
      <point x="748" y="778" type="line"/>
      <point x="748" y="1475" type="line"/>
      <point x="897" y="1475" type="line"/>
      <point x="1102" y="874" type="line"/>
      <point x="1108" y="874" type="line"/>
      <point x="1313" y="1475" type="line"/>
    </contour>
    <contour>
      <point x="612" y="1475" type="line"/>
      <point x="612" y="1399" type="line"/>
      <point x="387" y="1399" type="line"/>
      <point x="387" y="778" type="line"/>
      <point x="297" y="778" type="line"/>
      <point x="297" y="1399" type="line"/>
      <point x="72" y="1399" type="line"/>
      <point x="72" y="1475" type="line"/>
    </contour>
  </outline>
</glyph>
<glyph name="apple" format="1">
  <advance width="1024.0"/>
  <unicode hex="F8FF"/>
  <outline>
    <contour>
      <point x="565" y="438" type="line"/>
      <point x="946" y="354" type="line"/>
      <point x="899" y="223" type="line"/>
      <point x="541" y="385" type="line"/>
      <point x="584" y="0" type="line"/>
      <point x="440" y="0" type="line"/>
      <point x="483" y="385" type="line"/>
      <point x="125" y="223" type="line"/>
      <point x="78" y="354" type="line"/>
      <point x="459" y="438" type="line"/>
      <point x="188" y="733" type="line"/>
      <point x="188" y="741" type="line"/>
      <point x="459" y="1036" type="line"/>
      <point x="78" y="1120" type="line"/>
      <point x="125" y="1251" type="line"/>
      <point x="483" y="1090" type="line"/>
      <point x="440" y="1475" type="line"/>
      <point x="584" y="1475" type="line"/>
      <point x="541" y="1090" type="line"/>
      <point x="899" y="1251" type="line"/>
      <point x="946" y="1120" type="line"/>
      <point x="565" y="1036" type="line"/>
      <point x="836" y="741" type="line"/>
      <point x="836" y="733" type="line"/>
    </contour>
    <contour>
      <point x="512" y="461" type="line"/>
      <point x="694" y="737" type="line"/>
      <point x="512" y="1014" type="line"/>
      <point x="330" y="737" type="line"/>
    </contour>
  </outline>
</glyph>
<glyph name="fl" format="1">
  <advance width="1124.352"/>
  <unicode hex="FB02"/>
  <outline>
    <contour>
      <point x="694" y="1528" type="qcurve"/>
      <point x="694" y="1417" type="line"/>
      <point x="661.910447761" y="1434.1641791"/>
      <point x="581.223880597" y="1456.0"/>
      <point x="526" y="1456" type="qcurve" smooth="yes"/>
      <point x="457.343283582" y="1456.0"/>
      <point x="383.0" y="1370.29850746"/>
      <point x="383" y="1280" type="qcurve" smooth="yes"/>
      <point x="383" y="1049" type="line"/>
      <point x="647" y="1049" type="line"/>
      <point x="647" y="950" type="line"/>
      <point x="383" y="950" type="line"/>
      <point x="383" y="0" type="line"/>
      <point x="248" y="0" type="line"/>
      <point x="248" y="950" type="line"/>
      <point x="35" y="950" type="line"/>
      <point x="35" y="1049" type="line"/>
      <point x="248" y="1049" type="line"/>
      <point x="248" y="1274" type="line" smooth="yes"/>
      <point x="248.0" y="1414.29850746"/>
      <point x="393.104477612" y="1554.0"/>
      <point x="514" y="1554" type="qcurve" smooth="yes"/>
      <point x="576.686567164" y="1554.0"/>
      <point x="658.925373134" y="1539.94029851"/>
    </contour>
    <contour>
      <point x="963" y="1559" type="line"/>
      <point x="963" y="0" type="line"/>
      <point x="825" y="0" type="line"/>
      <point x="825" y="1511" type="line"/>
    </contour>
  </outline>
</glyph>
<glyph name="I.salt" format="1">
  <advance width="526.336"/>
  <outline>
    <contour>
      <point x="336" y="1475" type="line"/>
      <point x="336" y="0" type="line"/>
      <point x="190" y="0" type="line"/>
      <point x="190" y="1475" type="line"/>
    </contour>
  </outline>
</glyph>
<glyph name="registered" format="1">
  <advance width="1079.296"/>
  <outline>
    <contour>
      <point x="606" y="1006" type="qcurve"/>
      <point x="754" y="782" type="line"/>
      <point x="662" y="782" type="line"/>
      <point x="520" y="997" type="line"/>
      <point x="463" y="997" type="line"/>
      <point x="463" y="782" type="line"/>
      <point x="381" y="782" type="line"/>
      <point x="381" y="1294" type="line"/>
      <point x="551" y="1294" type="line" smooth="yes"/>
      <point x="631.597014925" y="1294.0"/>
      <point x="727.0" y="1218.64179104"/>
      <point x="727" y="1147" type="qcurve" smooth="yes"/>
      <point x="727.0" y="1088.79104478"/>
      <point x="661.223880597" y="1016.44776119"/>
    </contour>
    <contour>
      <point x="541" y="1489" type="qcurve" smooth="yes"/>
      <point x="733.537313433" y="1489.0"/>
      <point x="997.0" y="1224.53731343"/>
      <point x="997" y="1032" type="qcurve" smooth="yes"/>
      <point x="997.0" y="839.462686567"/>
      <point x="733.029850746" y="575.0"/>
      <point x="539" y="575" type="qcurve" smooth="yes"/>
      <point x="346.462686567" y="575.0"/>
      <point x="84.0" y="837.970149254"/>
      <point x="84" y="1032" type="qcurve" smooth="yes"/>
      <point x="84.0" y="1224.53731343"/>
      <point x="346.970149254" y="1489.0"/>
    </contour>
    <contour>
      <point x="541" y="623" type="qcurve" smooth="yes"/>
      <point x="713.388059701" y="623.0"/>
      <point x="944.0" y="859.611940299"/>
      <point x="944" y="1032" type="qcurve" smooth="yes"/>
      <point x="944.0" y="1205.13432836"/>
      <point x="712.880597015" y="1442.0"/>
      <point x="539" y="1442" type="qcurve" smooth="yes"/>
      <point x="365.865671642" y="1442.0"/>
      <point x="135.0" y="1205.13432836"/>
      <point x="135" y="1032" type="qcurve" smooth="yes"/>
      <point x="135.0" y="859.611940299"/>
      <point x="366.373134328" y="623.0"/>
    </contour>
    <contour>
      <point x="547" y="1063" type="line" smooth="yes"/>
      <point x="594.014925373" y="1063.0"/>
      <point x="647.0" y="1104.46268657"/>
      <point x="647" y="1147" type="qcurve" smooth="yes"/>
      <point x="647.0" y="1186.55223881"/>
      <point x="595.507462687" y="1229.0"/>
      <point x="547" y="1229" type="qcurve" smooth="yes"/>
      <point x="461" y="1229" type="line"/>
      <point x="461" y="1063" type="line"/>
    </contour>
  </outline>
</glyph>
